<svg xmlns="http://www.w3.org/2000/svg" viewBox="0 0 1921.83 246.03"><defs><style>.cls-1{fill:#abac22;}.cls-2{fill:#fff;}.cls-3{fill:#e2e3e4;}</style></defs><title>Asset 1</title><g id="Layer_2" data-name="Layer 2"><g id="artwork"><rect class="cls-1" x="541.47" y="-541.47" width="246.03" height="1328.97" transform="translate(541.47 787.5) rotate(-90)"/><rect x="1501.32" y="-174.48" width="246.03" height="594.99" transform="translate(1501.32 1747.35) rotate(-90)"/><path d="M72.71,36.84h38.63v76.75l71.23-76.75h46.65l-71.49,74.49,74.75,101.08h-46.4l-54.43-74.74-20.31,21.07v53.68H72.71Z"/><path d="M267.6,36.84h38.63V212.41H267.6Z"/><path d="M401,72.46H347.61V36.84H493.09V72.46H439.66v140H401Z"/><path d="M517.42,125.13v-.5c0-49.91,37.62-90.79,91.55-90.79,33.11,0,52.92,11,69.23,27.09L653.61,89.26C640.07,77,626.27,69.45,608.72,69.45c-29.6,0-50.92,24.58-50.92,54.68v.5c0,30.1,20.82,55.18,50.92,55.18,20.07,0,32.35-8,46.15-20.57l24.58,24.83c-18.06,19.31-38.12,31.35-72,31.35C555.79,215.42,517.42,175.54,517.42,125.13Z"/><path d="M720.33,36.84H759v69.48h71.23V36.84h38.63V212.41H830.19V141.93H759v70.48H720.33Z"/><path d="M921,36.84h132.43V71.2H959.37v35.62h82.77v34.36H959.37V178h95.31v34.36H921Z"/><path d="M1099.07,36.84h35.62L1217,144.94V36.84h38.12V212.41h-32.86l-85-111.61V212.41h-38.13Z"/><path class="cls-2" d="M1729.6,162.3c0-1-.09-2-.18-3a34.68,34.68,0,0,0-3.09-11.39,55.43,55.43,0,0,0-5.54-9.74,68.09,68.09,0,0,0-6.73-8,98.61,98.61,0,0,0-14.84-12.2c-2.11-1.43-4.23-2.78-6.35-4.07a37.94,37.94,0,0,0,15.19-10.61,50,50,0,0,0,5.65-8.27,38.37,38.37,0,0,0,3.7-9.62c.1-.43.2-.84.29-1.28l.23-1.44c.13-.92.27-2.08.3-2.61l.06-1,0-.5v-.94c0-.87,0-1.74-.09-2.61A36.75,36.75,0,0,0,1716,64.9a38.14,38.14,0,0,0-11.69-16.22,48.25,48.25,0,0,0-16.55-8.52A81.43,81.43,0,0,0,1670.92,37c-1.37-.12-2.78-.19-4.19-.26l-2,0h-2.11a69.91,69.91,0,0,0-8.34.61,60.57,60.57,0,0,0-16.81,4.7A46.46,46.46,0,0,0,1622,53.12,42.5,42.5,0,0,0,1612.4,71a26.68,26.68,0,0,0-.6,2.65c-.17.92-.35,2.07-.43,2.6l-.16,1,0,.25,0,.12a3.87,3.87,0,0,1,0,.48l0,.69c0,.92-.13,1.84-.11,2.78A41.53,41.53,0,0,0,1612.45,93a43.43,43.43,0,0,0,4.53,10.73,51.06,51.06,0,0,0,6.67,8.89,72,72,0,0,0,15.72,12.4q-2,.67-4,1.46a70.16,70.16,0,0,0-15.61,8.49,46,46,0,0,0-13.11,14.25,38.06,38.06,0,0,0-4,9.95c-.24.89-.4,1.82-.56,2.74a28,28,0,0,0-.35,2.81l-.06.71,0,.36c0,.74,0,.28,0,.48v.12l0,1,0,1c0,.13,0,.41,0,.64l0,.72.06,1.44,0,.72c0,.23,0,.44.06.65.09.86.17,1.73.28,2.59l.45,2.58c.16.86.39,1.7.6,2.55a39.45,39.45,0,0,0,18.3,24,55.38,55.38,0,0,0,17.76,6.51,125.08,125.08,0,0,0,17.17,2c2.78.13,5.54.25,8.3.27,1.44,0,2.65,0,4.1-.05s2.78-.11,4.17-.16a106,106,0,0,0,16.87-2.27,71.51,71.51,0,0,0,8.63-2.52,52.17,52.17,0,0,0,8.5-4,44.78,44.78,0,0,0,14.6-13.67,49.9,49.9,0,0,0,7.54-19.62l.35-2.62,0-.33,0-.16s0-.61,0-.41l.06-.5.06-.5c0-.06,0-.22,0-.36v-.43l0-.86V162.3Zm-90.74-78.64a17.82,17.82,0,0,1-1.82-4.14c-.14-.38-.2-.8-.3-1.2l-.07-.31c0,.11,0-.36,0,.23v-.13l0-.25-.11-1a11.4,11.4,0,0,0-.2-1.38c-.09-.33-.1-.85-.17-1.32a36.65,36.65,0,0,1,.82-12A29.13,29.13,0,0,1,1643.11,50a27.35,27.35,0,0,1,12.2-8.11,30.5,30.5,0,0,1,7.46-1.45c.62,0,1.31-.07,1.88-.08l2,0,1.87.18c.63.09,1.26.2,1.89.3a27.75,27.75,0,0,1,13.36,6.68,30.3,30.3,0,0,1,4.15,4.65,41.53,41.53,0,0,1,8.78,26c0,12.43-5.08,23.46-12.92,30.35l-.23.28s-3.77-1.89-7.77-3.86c-1.23-.54-2.46-1.05-3.68-1.56l-2-.8-.82-.32-.47-.17-.93-.33-1.62-.59-1.66-.63-3.26-1.28c-2.13-.87-4.18-1.78-6.12-2.74a58.92,58.92,0,0,1-10.07-6.16,31,31,0,0,1-3.64-3.26A22.1,22.1,0,0,1,1638.86,83.66Zm61.86,96.7a34,34,0,0,1-4.61,11.57,34.76,34.76,0,0,1-8.7,9.33,35.61,35.61,0,0,1-22,7.71c-21.45,0-38.84-19.68-38.84-44,0-13.52,5.39-25.6,13.87-33.66a47.68,47.68,0,0,1,3.71-3.6q1.68.9,3.35,1.73c1.35.67,2.7,1.33,4,1.93l2,.9,2.09.89,1.5.63,1.72.74,3.39,1.5c2.26,1,4.46,2,6.65,3a129.88,129.88,0,0,1,12.4,6.46,63.41,63.41,0,0,1,10.19,7.53,31.07,31.07,0,0,1,6.4,7.95,27.22,27.22,0,0,1,2.16,4.74,25.83,25.83,0,0,1,.87,3.5A33,33,0,0,1,1700.72,180.36Z"/><path class="cls-2" d="M1441,207.16a24,24,0,0,1-3.76-12.6c0-5.81,0-128.21,0-155,0-2.72-.63-3.86-1.24-3.47-.32-.2-.67,0-1,.72-6.88,15.77-24.68,30.45-35.55,34.65-1.53.59-1.55,2.2.62,2.2h.19l0-.05a3.31,3.31,0,0,0,.62.06,44.24,44.24,0,0,0,6.4-.89V194.56a20.56,20.56,0,0,1-5.79,13.25c-1.65,1.61-5.15,5-2.37,5h44C1446.41,212.81,1442.43,209.14,1441,207.16Z"/><path class="cls-2" d="M1587.65,162.3c0-1-.09-2-.18-3a34.68,34.68,0,0,0-3.09-11.39,55.43,55.43,0,0,0-5.54-9.74,68.09,68.09,0,0,0-6.73-8,98.61,98.61,0,0,0-14.84-12.2c-2.11-1.43-4.23-2.78-6.35-4.07a37.94,37.94,0,0,0,15.19-10.61,50,50,0,0,0,5.65-8.27,38.37,38.37,0,0,0,3.7-9.62c.1-.43.2-.84.29-1.28l.23-1.44c.13-.92.27-2.08.3-2.61l.06-1,0-.5v-.94c0-.87,0-1.74-.09-2.61A36.75,36.75,0,0,0,1574,64.9a38.14,38.14,0,0,0-11.69-16.22,48.25,48.25,0,0,0-16.55-8.52A81.43,81.43,0,0,0,1529,37c-1.37-.12-2.78-.19-4.19-.26l-2,0h-2.11a69.91,69.91,0,0,0-8.34.61,60.57,60.57,0,0,0-16.81,4.7,46.46,46.46,0,0,0-15.44,11.08A42.5,42.5,0,0,0,1470.45,71a26.68,26.68,0,0,0-.6,2.65c-.17.92-.35,2.07-.43,2.6l-.16,1,0,.25,0,.12a3.87,3.87,0,0,1,0,.48l0,.69c0,.92-.13,1.84-.11,2.78A41.53,41.53,0,0,0,1470.49,93a43.43,43.43,0,0,0,4.53,10.73,51.06,51.06,0,0,0,6.67,8.89A72,72,0,0,0,1497.4,125q-2,.67-4,1.46a70.16,70.16,0,0,0-15.61,8.49,46,46,0,0,0-13.11,14.25,38.06,38.06,0,0,0-4,9.95c-.24.89-.4,1.82-.56,2.74a28,28,0,0,0-.35,2.81l-.06.71,0,.36c0,.74,0,.28,0,.48v.12l0,1,0,1c0,.13,0,.41,0,.64l0,.72.06,1.44,0,.72c0,.23,0,.44.06.65.09.86.17,1.73.28,2.59l.45,2.58c.16.86.39,1.7.6,2.55a39.45,39.45,0,0,0,18.3,24,55.38,55.38,0,0,0,17.76,6.51,125.08,125.08,0,0,0,17.17,2c2.78.13,5.54.25,8.3.27,1.44,0,2.65,0,4.1-.05s2.78-.11,4.17-.16a106,106,0,0,0,16.87-2.27,71.51,71.51,0,0,0,8.63-2.52,52.17,52.17,0,0,0,8.5-4,44.78,44.78,0,0,0,14.6-13.67,49.9,49.9,0,0,0,7.54-19.62l.35-2.62,0-.33,0-.16s0-.61,0-.41l.06-.5.06-.5c0-.06,0-.22,0-.36v-.43l0-.86V162.3ZM1496.9,83.66a17.82,17.82,0,0,1-1.82-4.14c-.14-.38-.2-.8-.3-1.2l-.07-.31c0,.11,0-.36,0,.23v-.13l0-.25-.11-1a11.4,11.4,0,0,0-.2-1.38c-.09-.33-.1-.85-.17-1.32a36.65,36.65,0,0,1,.82-12A29.13,29.13,0,0,1,1501.15,50a27.35,27.35,0,0,1,12.2-8.11,30.5,30.5,0,0,1,7.46-1.45c.62,0,1.31-.07,1.88-.08l2,0,1.87.18c.63.09,1.26.2,1.89.3a27.75,27.75,0,0,1,13.36,6.68,30.3,30.3,0,0,1,4.15,4.65,41.53,41.53,0,0,1,8.78,26c0,12.43-5.08,23.46-12.92,30.35l-.23.28s-3.77-1.89-7.77-3.86c-1.23-.54-2.46-1.05-3.68-1.56l-2-.8-.82-.32-.47-.17-.93-.33-1.62-.59-1.66-.63-3.26-1.28c-2.13-.87-4.18-1.78-6.12-2.74a58.92,58.92,0,0,1-10.07-6.16,31,31,0,0,1-3.64-3.26A22.1,22.1,0,0,1,1496.9,83.66Zm61.86,96.7a34,34,0,0,1-4.61,11.57,34.76,34.76,0,0,1-8.7,9.33,35.61,35.61,0,0,1-22,7.71c-21.45,0-38.84-19.68-38.84-44,0-13.52,5.39-25.6,13.87-33.66a47.68,47.68,0,0,1,3.71-3.6q1.68.9,3.35,1.73c1.35.67,2.7,1.33,4,1.93l2,.9,2.09.89,1.5.63,1.72.74,3.39,1.5c2.26,1,4.46,2,6.65,3a129.88,129.88,0,0,1,12.4,6.46,63.41,63.41,0,0,1,10.19,7.53A31.07,31.07,0,0,1,1556,161a27.22,27.22,0,0,1,2.16,4.74,25.83,25.83,0,0,1,.87,3.5A33,33,0,0,1,1558.76,180.36Z"/><path class="cls-2" d="M1815.76,98.28c17.22-14.38,34-27.49,35.08-59.19,0-1-1-1.26-1.53-.46-4,5.57-10.16,6.72-15.64,6.72-13.41,0-28.62-9.29-43.34-9.29-20,0-33.36,13.73-34.88,39.46-.1,1.63,1,2.09,2,.87,3.47-4.37,10.11-6.49,18.23-6.49,19.51,0,39.34,12.33,55,7.4-2.85,4.35-28.9,25.26-44.52,36.38,22.32,11.11,41.64,31.33,41.64,57.33a44.87,44.87,0,0,1-7.15,25.05,68.63,68.63,0,0,1-6.85,6.87,31.9,31.9,0,0,1-10.14,5.38,28.66,28.66,0,0,1-6.74.92,41.43,41.43,0,0,1-6.8-.36c-2.28-.37-8.16-1.47-11.62-3.77-.26-.17-.49-.31-.7-.43-5.17-3.72-8.68-8.58-8.64-13.57,7.53-1.07,13.16-8.64,13.23-19.95.08-12.11-8.24-22.23-18.87-22.17S1744,158.2,1744,172.77c0,21.7,18,33.32,36.1,37.2,1.06.34,2.13.64,3.22.91a50,50,0,0,0,14.2,1.1,27.93,27.93,0,0,0,4.64-.56l-.1.05c32.2-6.75,53.81-29.76,53.81-55.92C1855.82,129.07,1838.17,109.76,1815.76,98.28Z"/><path class="cls-3" d="M1436,36.13c-.32-.2-.67,0-1,.72-6.88,15.77-24.68,30.45-35.55,34.65-1.53.59-1.55,2.2.62,2.2h.19l0-.05a3.3,3.3,0,0,0,.62.06,44.24,44.24,0,0,0,6.4-.89V194.56a20.56,20.56,0,0,1-5.79,13.25c-1.65,1.61-5.15,5-2.37,5h6.32a21.2,21.2,0,0,0,3-2.52c4.69-4.85,6.11-11.84,6.77-18.31,0,0,0-.07,0-.11V72.56c8.61-5.9,18.93-15.72,22-23.13,0-5.12,0-6.72,0-9.84C1437.29,36.87,1436.66,35.74,1436,36.13Z"/><path class="cls-3" d="M1470.49,93a43.43,43.43,0,0,0,4.53,10.73,51.06,51.06,0,0,0,6.67,8.89,69.45,69.45,0,0,0,12.67,10.48,65.86,65.86,0,0,1-6.87-6.3,51,51,0,0,1-6.67-8.89,43.43,43.43,0,0,1-4.53-10.73,41.53,41.53,0,0,1-1.46-11.43c0-.94.06-1.86.11-2.78l0-.69a3.81,3.81,0,0,0,0-.48l0-.12,0-.25.16-1c.08-.53.26-1.68.43-2.6a26.69,26.69,0,0,1,.6-2.65,42.5,42.5,0,0,1,9.63-17.88,46.46,46.46,0,0,1,15.44-11.08,56.88,56.88,0,0,1,9.06-3.16,27,27,0,0,1,3-1.18,30.5,30.5,0,0,1,7.46-1.45c.62,0,1.31-.07,1.88-.08l2,0,1.87.18c.63.09,1.26.2,1.89.3l.18,0,1.95,0c1.41.06,2.81.14,4.19.26a81.43,81.43,0,0,1,16.84,3.11,51.72,51.72,0,0,1,11.63,5.09c-.29-.25-.58-.52-.87-.76a48.25,48.25,0,0,0-16.55-8.52A81.42,81.42,0,0,0,1529,37c-1.37-.12-2.78-.19-4.19-.26l-2,0h-2.11a69.88,69.88,0,0,0-8.34.61,60.57,60.57,0,0,0-16.81,4.7,46.46,46.46,0,0,0-15.44,11.08A42.5,42.5,0,0,0,1470.45,71a26.7,26.7,0,0,0-.6,2.65c-.17.92-.35,2.07-.43,2.6l-.16,1,0,.25,0,.12a3.8,3.8,0,0,1,0,.48l0,.69c0,.92-.13,1.84-.11,2.78A41.53,41.53,0,0,0,1470.49,93Z"/><path class="cls-3" d="M1493.44,126.48a70.17,70.17,0,0,0-15.61,8.49,46,46,0,0,0-13.11,14.25,38.06,38.06,0,0,0-4,9.95c-.24.89-.4,1.82-.56,2.74a28,28,0,0,0-.35,2.81l-.06.71,0,.36c0,.74,0,.28,0,.48v.12l0,1,0,1c0,.13,0,.41,0,.64l0,.72.06,1.44,0,.72c0,.23,0,.44.06.65.09.86.17,1.73.28,2.59l.45,2.58c.16.86.39,1.7.6,2.55a39.41,39.41,0,0,0,18.12,23.9,38.64,38.64,0,0,1-8.33-10,40,40,0,0,1-4-9.68c-.21-.85-.44-1.7-.6-2.55l-.45-2.58c-.11-.86-.19-1.73-.28-2.59,0-.22,0-.42-.06-.65l0-.72-.06-1.44,0-.72c0-.23,0-.51,0-.64l0-1,0-1v-.12c0-.2,0,.27,0-.48l0-.36.06-.71a28,28,0,0,1,.35-2.81c.16-.93.32-1.85.56-2.74a38.06,38.06,0,0,1,4-9.95,46,46,0,0,1,13.11-14.25,70,70,0,0,1,15.51-8.45c.81-.84,2.22-2.18,3.1-3a43.35,43.35,0,0,1-4.94-2.77C1496.08,125.39,1494.63,126,1493.44,126.48Z"/><path class="cls-3" d="M1541.8,108.56l-.25.28s3.45,1.72,6.5,3.48c7.58-6.91,12.47-17.73,12.47-29.91a41.53,41.53,0,0,0-8.78-26,30.29,30.29,0,0,0-4.15-4.65,27.43,27.43,0,0,0-5.46-3.84,30.64,30.64,0,0,1,3.81,4.31,41.53,41.53,0,0,1,8.78,26C1554.72,90.65,1549.64,101.68,1541.8,108.56Z"/><path class="cls-3" d="M1564.57,172.05a28.38,28.38,0,0,0-2.79-6.87,31.07,31.07,0,0,0-6.4-7.95,62.46,62.46,0,0,0-8.28-6.32c.86.7,1.7,1.42,2.48,2.13A31.07,31.07,0,0,1,1556,161a28.46,28.46,0,0,1,3,8.24,33.24,33.24,0,0,1-.25,11.13,34,34,0,0,1-4.61,11.57,34.76,34.76,0,0,1-8.7,9.33,35.61,35.61,0,0,1-22,7.71,35.09,35.09,0,0,1-17.89-4.94,36.12,36.12,0,0,0,21,9h.2c1.41,0,2.78-.11,4.17-.16,1.75-.11,3.52-.27,5.29-.45a36.31,36.31,0,0,0,15-7,34.76,34.76,0,0,0,8.7-9.33,34,34,0,0,0,4.61-11.57,33,33,0,0,0,.25-11.13Z"/><path class="cls-3" d="M1827.74,171a44.87,44.87,0,0,1-7.15,25.05,68.62,68.62,0,0,1-6.85,6.87,31.9,31.9,0,0,1-10.14,5.38,28.66,28.66,0,0,1-6.74.92,41.42,41.42,0,0,1-6.8-.36c-2.28-.37-8.16-1.47-11.62-3.77-.26-.17-.49-.31-.7-.43a29.3,29.3,0,0,1-2.65-2.17,22.26,22.26,0,0,0,7,8.06c.4.11.78.23,1.18.33a50,50,0,0,0,14.2,1.1,27.93,27.93,0,0,0,4.64-.56l-.1.05a82,82,0,0,0,22.34-8.11c.36-.4.71-.78,1-1.12a44.87,44.87,0,0,0,7.15-25.05c0-14.11-5.7-26.51-14.47-36.68A53.83,53.83,0,0,1,1827.74,171Z"/><path class="cls-3" d="M1849.31,38.62c-4,5.57-10.16,6.72-15.64,6.72-13.41,0-28.62-9.29-43.34-9.29-20,0-33.36,13.73-34.88,39.46-.1,1.63,1,2.09,2,.87a13.8,13.8,0,0,1,3.82-3.22c3.73-20.2,16.19-30.91,33.85-30.91,14.72,0,29.93,9.29,43.34,9.29,3.85,0,8-.61,11.54-2.87a81.2,81.2,0,0,0,.87-9.58C1850.87,38.06,1849.88,37.83,1849.31,38.62Z"/><path class="cls-3" d="M1823.31,84.43c-9.54,8.33-26,21.29-37.21,29.24q3.84,1.91,7.54,4.19c13.52-11.82,18.19-16.49,22.11-19.58,5.47-4.57,10.91-9,15.81-14-1.22.18-.94-7-.94-7S1826,82.09,1823.31,84.43Z"/><path class="cls-3" d="M1763.44,149c-10.61,0-19.49,9.23-19.49,23.8a32.76,32.76,0,0,0,9.35,23.41,33.08,33.08,0,0,1-4.59-17.22c0-14.57,8.88-23.78,19.49-23.8a16.93,16.93,0,0,1,11.38,4.44C1776.31,153.24,1770.38,148.93,1763.44,149Z"/><path class="cls-3" d="M1612.45,93a43.43,43.43,0,0,0,4.53,10.73,51.06,51.06,0,0,0,6.67,8.89,69.45,69.45,0,0,0,12.67,10.48,65.86,65.86,0,0,1-6.87-6.3,51,51,0,0,1-6.67-8.89,43.43,43.43,0,0,1-4.53-10.73,41.53,41.53,0,0,1-1.46-11.43c0-.94.06-1.86.11-2.78l0-.69a3.84,3.84,0,0,0,0-.48l0-.12,0-.25.16-1c.08-.53.26-1.68.43-2.6a26.69,26.69,0,0,1,.6-2.65,42.5,42.5,0,0,1,9.63-17.88,46.46,46.46,0,0,1,15.44-11.08,56.88,56.88,0,0,1,9.06-3.16,27,27,0,0,1,3-1.18,30.5,30.5,0,0,1,7.46-1.45c.62,0,1.31-.07,1.88-.08l2,0,1.87.18c.63.09,1.26.2,1.89.3l.18,0,1.95,0c1.41.06,2.81.14,4.19.26a81.43,81.43,0,0,1,16.84,3.11,51.72,51.72,0,0,1,11.63,5.09c-.29-.25-.58-.52-.87-.76a48.25,48.25,0,0,0-16.55-8.52A81.42,81.42,0,0,0,1670.92,37c-1.37-.12-2.78-.19-4.19-.26l-2,0h-2.11a69.88,69.88,0,0,0-8.34.61,60.57,60.57,0,0,0-16.81,4.7A46.46,46.46,0,0,0,1622,53.12,42.5,42.5,0,0,0,1612.4,71a26.7,26.7,0,0,0-.6,2.65c-.17.92-.35,2.07-.43,2.6l-.16,1,0,.25,0,.12a3.8,3.8,0,0,1,0,.48l0,.69c0,.92-.13,1.84-.11,2.78A41.53,41.53,0,0,0,1612.45,93Z"/><path class="cls-3" d="M1635.39,126.48a70.17,70.17,0,0,0-15.61,8.49,46,46,0,0,0-13.11,14.25,38.06,38.06,0,0,0-4,9.95c-.24.89-.4,1.82-.56,2.74a28,28,0,0,0-.35,2.81l-.06.71,0,.36c0,.74,0,.28,0,.48v.12l0,1,0,1c0,.13,0,.41,0,.64l0,.72.06,1.44,0,.72c0,.23,0,.44.06.65.09.86.17,1.73.28,2.59l.45,2.58c.16.86.39,1.7.6,2.55a39.41,39.41,0,0,0,18.12,23.9,38.65,38.65,0,0,1-8.33-10,40,40,0,0,1-4-9.68c-.21-.85-.44-1.7-.6-2.55l-.45-2.58c-.11-.86-.19-1.73-.28-2.59,0-.22,0-.42-.06-.65l0-.72-.06-1.44,0-.72c0-.23,0-.51,0-.64l0-1,0-1v-.12c0-.2,0,.27,0-.48l0-.36.06-.71a28,28,0,0,1,.35-2.81c.16-.93.32-1.85.56-2.74a38.06,38.06,0,0,1,4-9.95,46,46,0,0,1,13.11-14.25,70,70,0,0,1,15.51-8.45c.81-.84,2.22-2.18,3.1-3a43.35,43.35,0,0,1-4.94-2.77C1638,125.39,1636.59,126,1635.39,126.48Z"/><path class="cls-3" d="M1683.76,108.56l-.25.28s3.45,1.72,6.5,3.48c7.58-6.91,12.47-17.73,12.47-29.91a41.53,41.53,0,0,0-8.78-26,30.29,30.29,0,0,0-4.15-4.65,27.43,27.43,0,0,0-5.46-3.84,30.64,30.64,0,0,1,3.81,4.31,41.53,41.53,0,0,1,8.78,26C1696.68,90.65,1691.6,101.68,1683.76,108.56Z"/><path class="cls-3" d="M1706.53,172.05a28.37,28.37,0,0,0-2.79-6.87,31.07,31.07,0,0,0-6.4-7.95,62.47,62.47,0,0,0-8.28-6.32c.86.7,1.7,1.42,2.48,2.13a31.07,31.07,0,0,1,6.4,7.95,28.46,28.46,0,0,1,3,8.24,33.24,33.24,0,0,1-.25,11.13,34,34,0,0,1-4.61,11.57,34.76,34.76,0,0,1-8.7,9.33,35.61,35.61,0,0,1-22,7.71,35.09,35.09,0,0,1-17.89-4.94,36.12,36.12,0,0,0,21,9h.2c1.41,0,2.78-.11,4.17-.16,1.75-.11,3.52-.27,5.29-.45a36.31,36.31,0,0,0,15-7,34.76,34.76,0,0,0,8.7-9.33,34,34,0,0,0,4.61-11.57,33,33,0,0,0,.25-11.13Z"/></g></g></svg>