<?xml version="1.0" encoding="UTF-8"?>
<svg width="566px" height="73px" viewBox="0 0 566 73" version="1.1" xmlns="http://www.w3.org/2000/svg" xmlns:xlink="http://www.w3.org/1999/xlink">
    <!-- Generator: Sketch 46.2 (44496) - http://www.bohemiancoding.com/sketch -->
    <title>kitchen-1883-logo-white</title>
    <desc>Created with Sketch.</desc>
    <defs></defs>
    <g id="Page-1" stroke="none" stroke-width="1" fill="none" fill-rule="evenodd">
        <g id="kitchen-1883-logo-white" fill-rule="nonzero" fill="#F6F7EA">
            <polygon id="Shape" points="21.42 10.85 32.79 10.85 32.79 33.46 53.77 10.85 67.52 10.85 46.46 32.79 68.47 62.56 54.81 62.56 38.78 40.55 32.79 46.76 32.79 62.56 21.42 62.56"></polygon>
            <rect id="Rectangle-path" x="78.82" y="10.85" width="11.38" height="51.71"></rect>
            <polygon id="Shape" points="118.12 21.34 102.38 21.34 102.38 10.85 145.23 10.85 145.23 21.34 129.5 21.34 129.5 62.56 118.12 62.56"></polygon>
            <path d="M152.4,36.86 L152.4,36.71 C152.4,22.01 163.48,9.97 179.4,9.97 C189.15,9.97 194.99,13.22 199.79,17.97 L192.55,26.32 C188.55,22.7 184.5,20.48 179.33,20.48 C170.61,20.48 164.33,27.72 164.33,36.58 L164.33,36.73 C164.33,45.59 170.46,52.98 179.33,52.98 C185.24,52.98 188.86,50.62 192.92,46.92 L200.16,54.23 C194.84,59.92 188.93,63.47 178.96,63.47 C163.74,63.47 152.44,51.72 152.44,36.88" id="Shape"></path>
            <polygon id="Shape" points="212.16 10.85 223.54 10.85 223.54 31.32 244.52 31.32 244.52 10.85 255.9 10.85 255.9 62.56 244.52 62.56 244.52 41.8 223.54 41.8 223.54 62.56 212.16 62.56"></polygon>
            <polygon id="Shape" points="271.27 10.85 310.27 10.85 310.27 20.97 282.57 20.97 282.57 31.46 306.95 31.46 306.95 41.58 282.57 41.58 282.57 52.44 310.64 52.44 310.64 62.56 271.27 62.56"></polygon>
            <polygon id="Shape" points="323.72 10.85 334.21 10.85 358.44 42.69 358.44 10.85 369.67 10.85 369.67 62.56 359.99 62.56 334.95 29.69 334.95 62.56 323.72 62.56"></polygon>
            <path d="M442.75,26.62 C443.685887,27.3265457 444.691032,27.9363337 445.75,28.44 C446.32,28.72 446.92,28.99 447.55,29.25 L448.55,29.63 L449.04,29.82 L449.52,29.99 L449.79,30.09 L449.93,30.09 L450.17,30.18 L450.75,30.42 L451.83,30.88 L454,32.06 L454.07,31.98 C456.582897,29.6781098 457.98523,26.4072121 457.92,23 C457.950137,20.2268632 457.036861,17.5258229 455.33,15.34 C454.973186,14.8534283 454.567762,14.4044468 454.12,14 C453.018074,12.9857257 451.658551,12.2938564 450.19,12 L449.63,11.91 L449.08,11.86 L448.49,11.86 L447.94,11.86 C447.191503,11.9102518 446.452334,12.0547256 445.74,12.29 C444.34845,12.7457724 443.10735,13.57202 442.15,14.68 C441.273334,15.7104493 440.653085,16.9338132 440.34,18.25 C440.063731,19.4118428 439.982625,20.6115447 440.1,21.8 C440.093445,21.9299174 440.093445,22.0600826 440.1,22.19 C440.128149,22.3253494 440.148185,22.4622601 440.16,22.6 L440.16,22.89 L440.16,23 C440.16,22.82 440.16,23 440.16,22.93 L440.16,23.02 C440.16,23.14 440.16,23.26 440.25,23.37 C440.377385,23.7979764 440.55885,24.2079526 440.79,24.59 C441.016834,24.9479248 441.278074,25.282847 441.57,25.59 C441.933136,25.9664653 442.327919,26.3110636 442.75,26.62 L442.75,26.62 Z" id="Shape"></path>
            <path d="M391.43,0 L0,0 L0,73 L566,73 L566,0 L391.43,0 Z M390.77,72.3351732 L0.65,72.3351732 L0.65,0.664826825 L390.77,0.664826825 L390.77,72.3351732 Z M425.08,63.1384021 L412.08,63.1384021 C411.26,63.1384021 412.29,62.1310887 412.78,61.6576514 C413.803032,60.5996436 414.41057,59.2038962 414.49,57.7291293 L414.49,21.6068718 C413.870505,21.7401959 413.242164,21.8277296 412.61,21.8687733 L412.43,21.8687733 L412.43,21.8687733 L412.37,21.8687733 C411.73,21.8687733 411.74,21.395336 412.19,21.2140196 C416.726646,19.0661349 420.414327,15.4437292 422.66,10.9293501 C422.75,10.7278874 422.85,10.6573755 422.95,10.7178143 C423.13,10.6070098 423.31,10.9394232 423.31,11.7251276 C423.31,19.662757 423.31,55.976404 423.31,57.6989099 C423.33109,59.0298919 423.722603,60.3281933 424.44,61.4461156 C424.85,62.0505037 426,63.1384021 425.08,63.1384021 Z M467.62,48.8345522 L467.62,49.2173313 C467.622375,49.2542274 467.622375,49.2912397 467.62,49.3281358 L467.62,49.4792328 L467.62,49.6303298 C467.62,49.569891 467.62,49.7512074 467.62,49.7512074 L467.62,49.9023044 L467.52,50.6779357 C467.198752,52.7554473 466.441967,54.7402252 465.3,56.500207 C464.186009,58.1521908 462.716135,59.5295156 461,60.5294605 C460.204345,61.0043168 459.367586,61.4055268 458.5,61.7281634 C457.669728,62.0301624 456.821378,62.279127 455.96,62.4735753 C454.314173,62.8342523 452.642032,63.0599579 450.96,63.1484752 C450.55,63.1484752 450.15,63.1484752 449.73,63.1484752 C449.31,63.1484752 448.95,63.1484752 448.52,63.1484752 C447.71,63.1484752 446.9,63.1484752 446.08,63.0678902 C444.381735,62.9876976 442.691023,62.7891175 441.02,62.4735753 C439.179504,62.1356199 437.410399,61.4814087 435.79,60.5395336 C433.127198,58.9791804 431.188471,56.4175766 430.4,53.4178281 C430.34,53.1659997 430.27,52.9141714 430.22,52.662343 L430.09,51.8967849 C430.09,51.6449565 430.03,51.3830551 430.01,51.1312267 C430.01,51.0707879 430.01,51.0103491 430.01,50.9398372 L430.01,50.7283014 L430.01,50.3052298 L430.01,50.0936939 C430.01,50.023182 430.01,49.9425969 430.01,49.9023044 L430.01,49.3583552 C430.01,49.2979164 430.01,49.4389403 430.01,49.2173313 L430.01,49.1166 L430.01,48.9050642 C430.028989,48.6248226 430.062367,48.3457592 430.11,48.0689941 C430.11,47.7970195 430.2,47.5250448 430.28,47.2530702 C430.519227,46.2277095 430.899575,45.2410683 431.41,44.3217883 C432.384062,42.6516212 433.699882,41.2094288 435.27,40.0910722 C436.691288,39.0588242 438.236993,38.2126234 439.87,37.5727887 C440.256667,37.418334 440.646667,37.2739524 441.04,37.139644 C439.334344,36.137068 437.775973,34.8995622 436.41,33.4629502 C435.649543,32.6595369 434.978866,31.7745243 434.41,30.8237892 C433.827075,29.8275767 433.379736,28.7569534 433.08,27.6406789 C432.780966,26.534715 432.636243,25.3921997 432.65,24.2460328 C432.65,23.9639851 432.65,23.6920105 432.65,23.4200359 L432.65,23.1682075 C432.653595,23.1212693 432.653595,23.0741219 432.65,23.0271837 L432.65,22.9163792 L432.65,22.6242583 C432.65,22.4731613 432.73,22.1306748 432.78,21.848627 C432.82673,21.5838193 432.886807,21.3215787 432.96,21.0629226 C433.466578,19.0881068 434.441101,17.2665224 435.8,15.7543811 C437.075577,14.3553575 438.624713,13.2373098 440.35,12.4705395 C441.968931,11.7557258 443.684336,11.2872441 445.44,11.0804471 C446.255676,10.970639 447.077144,10.910092 447.9,10.8991307 L449.11,10.8991307 C449.53,10.8991307 449.94,10.8991307 450.34,10.9797157 C452.034616,11.1088303 453.710747,11.4194939 455.34,11.906444 C457.114398,12.4215847 458.772012,13.2804045 460.22,14.4348006 C461.771115,15.7032917 462.958541,17.3653275 463.66,19.2497585 C464.020898,20.2205236 464.243116,21.2379936 464.32,22.2716986 C464.32,22.5336001 464.32,22.7854285 464.32,23.0473299 L464.32,23.4704015 L464.32,23.7625224 C464.32,23.9236926 464.27,24.2661791 464.23,24.5381537 L464.16,24.9612253 C464.16,25.0921761 464.1,25.2130537 464.07,25.3440044 C463.823813,26.3447836 463.443664,27.3071912 462.94,28.2047744 C462.469512,29.077825 461.913404,29.9012156 461.28,30.662619 C460.070529,32.0660021 458.534799,33.1457602 456.81,33.8054367 C457.44,34.1882158 458.06,34.5911412 458.68,35.0142128 C460.232771,36.0759845 461.679556,37.2870822 463,38.6304678 C463.726244,39.3700116 464.394886,40.16478 465,41.0077273 C465.639391,41.9131288 466.185544,42.8817933 466.63,43.8987167 C467.12252,44.9629104 467.43031,46.1042695 467.54,47.2732165 C467.54,47.5653374 467.54,47.8675314 467.59,48.1596523 L467.59,48.8345522 L467.62,48.8345522 Z M509.43,48.8345522 L509.43,49.2173313 C509.43,49.2173313 509.43,49.3079895 509.43,49.3281358 L509.43,49.4792328 L509.43,49.6303298 C509.43,49.569891 509.43,49.7512074 509.43,49.7512074 L509.43,49.9023044 L509.33,50.6779357 C508.972614,52.7571155 508.178204,54.7353414 507,56.4800607 C505.885746,58.1318175 504.415929,59.5090889 502.7,60.5093142 C501.904319,60.9841216 501.067565,61.3853295 500.2,61.7080171 C499.369728,62.0100162 498.521378,62.2589807 497.66,62.453429 C496.014166,62.8140624 494.342027,63.0397676 492.66,63.128329 C492.25,63.128329 491.85,63.128329 491.43,63.128329 C491.01,63.128329 490.65,63.128329 490.22,63.128329 C489.41,63.128329 488.6,63.128329 487.78,63.0477439 C486.081735,62.9675513 484.391023,62.7689712 482.72,62.453429 C480.879504,62.1154737 479.110399,61.4612624 477.49,60.5193873 C474.827198,58.9590341 472.888471,56.3974304 472.1,53.3976818 C472.04,53.1458535 471.97,52.8940251 471.92,52.6421968 L471.79,51.8766386 C471.79,51.6248103 471.73,51.3629088 471.71,51.1110804 C471.71,51.0506416 471.71,50.9902028 471.71,50.9196909 L471.71,50.7081551 L471.71,50.2850835 L471.71,50.0735477 C471.71,50.0030357 471.71,49.9224507 471.71,49.8821581 L471.71,49.3583552 C471.71,49.2979164 471.71,49.4389403 471.71,49.2173313 L471.71,49.1166 L471.71,48.9050642 C471.71,48.6230164 471.76,48.3409687 471.81,48.0689941 C471.86,47.7970195 471.9,47.5250448 471.98,47.2530702 C472.253457,46.221761 472.670961,45.2348087 473.22,44.3217883 C474.193814,42.6514369 475.509679,41.2091962 477.08,40.0910722 C478.501114,39.0585469 480.046856,38.2123263 481.68,37.5727887 C482.07,37.4116186 482.46,37.2705947 482.85,37.139644 C481.144344,36.137068 479.585973,34.8995622 478.22,33.4629502 C477.459543,32.6595369 476.788866,31.7745243 476.22,30.8237892 C475.637183,29.8275219 475.189851,28.7569137 474.89,27.6406789 C474.590966,26.534715 474.446243,25.3921997 474.46,24.2460328 C474.46,23.9639851 474.46,23.6920105 474.46,23.4200359 L474.46,23.1682075 C474.463595,23.1212693 474.463595,23.0741219 474.46,23.0271837 L474.46,22.9163792 L474.46,22.6242583 C474.46,22.4731613 474.54,22.1306748 474.59,21.848627 C474.63673,21.5838193 474.696807,21.3215787 474.77,21.0629226 C475.276578,19.0881068 476.251101,17.2665224 477.61,15.7543811 C478.885769,14.3555761 480.434857,13.2375633 482.16,12.4705395 C483.778931,11.7557258 485.494336,11.2872441 487.25,11.0804471 C488.065671,10.9705911 488.887142,10.9100439 489.71,10.8991307 L490.92,10.8991307 C491.34,10.8991307 491.75,10.8991307 492.15,10.9797157 C493.844616,11.1088303 495.520747,11.4194939 497.15,11.906444 C498.914598,12.4282424 500.561771,13.2903522 502,14.4448737 C503.551115,15.7133648 504.738541,17.3754007 505.44,19.2598317 C505.800898,20.2305967 506.023116,21.2480668 506.1,22.2817718 C506.1,22.5436732 506.1,22.7955016 506.1,23.0574031 L506.1,23.4804747 L506.1,23.7725956 C506.1,23.9337657 506.05,24.2762522 506.01,24.5482269 L505.94,24.9712985 C505.94,25.1022492 505.88,25.2231268 505.85,25.3540775 C505.612432,26.3498669 505.24242,27.3087685 504.75,28.2047744 C504.279858,29.078037 503.723727,29.9014613 503.09,30.662619 C501.880529,32.0660021 500.344799,33.1457602 498.62,33.8054367 C499.25,34.1882158 499.87,34.5911412 500.49,35.0142128 C502.059886,36.0736943 503.523477,37.2848428 504.86,38.6304678 C505.586244,39.3700116 506.254886,40.16478 506.86,41.0077273 C507.499391,41.9131288 508.045544,42.8817933 508.49,43.8987167 C508.98252,44.9629104 509.29031,46.1042695 509.4,47.2732165 C509.4,47.5653374 509.4,47.8675314 509.45,48.1596523 L509.45,48.8345522 L509.43,48.8345522 Z M530.76,62.7455499 L530.76,62.7455499 C530.308675,62.8381726 529.850367,62.892089 529.39,62.90672 C527.988537,63.0004308 526.580971,62.8918865 525.21,62.5843797 C524.89,62.5037947 524.57,62.4131365 524.21,62.3124051 C518.87,61.1640679 513.58,57.708983 513.58,51.2319581 C513.58,46.9105837 516.2,44.1807645 519.32,44.1807645 C522.44,44.1807645 524.9,47.2027046 524.88,50.7585208 C524.88,54.1128743 523.2,56.3591831 520.98,56.6815234 C521.146391,58.3563669 522.092895,59.8519378 523.53,60.7107769 L523.74,60.8417276 C524.802867,61.4211737 525.961902,61.800103 527.16,61.9598455 C527.822563,62.0515338 528.491451,62.0885917 529.16,62.0706499 C529.835073,62.0609925 530.50655,61.9696801 531.16,61.7986753 C532.247504,61.4557163 533.264038,60.9164266 534.16,60.2071202 C534.87229,59.5831634 535.540573,58.9099924 536.16,58.1924934 C537.574205,55.9781227 538.304992,53.3911467 538.26,50.7585208 C538.26,43.0425003 532.57,37.0489858 526,33.7550711 C530.6,30.4510832 538.27,24.256106 539.11,22.9566717 C534.5,24.4172761 528.67,20.7607286 522.92,20.7607286 C520.53,20.7607286 518.57,21.395336 517.55,22.6846971 C517.27,23.0473299 516.94,22.9063061 516.97,22.4227956 C517.42,14.7873603 521.35,10.7178143 527.24,10.7178143 C531.58,10.7178143 536.06,13.4778529 540.01,13.4778529 C541.785138,13.6294432 543.517128,12.8725421 544.62,11.4632262 C544.79,11.221471 545.08,11.2919829 545.07,11.5941769 C544.77,21.0024838 539.81,24.8907134 534.74,29.151649 C541.34,32.5563682 546.54,38.2879812 546.54,46.1450255 C546.54,54.0020698 540.24,60.7409963 530.76,62.7455499 Z" id="Shape"></path>
            <path d="M484.56,26.62 C485.495887,27.3265457 486.501032,27.9363337 487.56,28.44 C488.13,28.72 488.73,28.99 489.36,29.25 L490.36,29.63 L490.85,29.82 L491.33,29.99 L491.61,30.09 L491.75,30.09 L491.99,30.18 L492.57,30.42 L493.65,30.88 L495.94,32.02 L496.01,31.94 C498.463301,29.623494 499.815832,26.3730579 499.73,23 C499.760137,20.2268632 498.846861,17.5258229 497.14,15.34 C496.783186,14.8534283 496.377762,14.4044468 495.93,14 C494.828074,12.9857257 493.468551,12.2938564 492,12 L491.44,11.91 L490.89,11.86 L490.3,11.86 L489.75,11.86 C489.00153,11.910463 488.262388,12.0549317 487.55,12.29 C486.167213,12.7661972 484.94005,13.609656 484,14.73 C483.123968,15.7608712 482.5038,16.9840755 482.19,18.3 C481.914648,19.4619817 481.833552,20.6615305 481.95,21.85 C481.95,21.99 481.95,22.14 481.95,22.24 C481.978149,22.3753494 481.998185,22.5122601 482.01,22.65 L482.01,22.94 L482.01,23 C482.01,22.82 482.01,23 482.01,22.93 L482.01,23.02 C482.01,23.14 482.01,23.26 482.1,23.37 C482.227385,23.7979764 482.40885,24.2079526 482.64,24.59 C482.867144,24.9477064 483.128361,25.2825996 483.42,25.59 C483.770419,25.9647196 484.151766,26.3092699 484.56,26.62 L484.56,26.62 Z" id="Shape"></path>
            <path d="M458.93,48.82 C458.762691,48.3336356 458.548343,47.8647492 458.29,47.42 C457.796418,46.541828 457.161206,45.7511917 456.41,45.08 C455.486743,44.241554 454.481712,43.4978312 453.41,42.86 C452.228542,42.1612085 451.01009,41.5269455 449.76,40.96 C449.12,40.67 448.47,40.36 447.76,40.08 L446.76,39.64 L446.25,39.42 L445.81,39.24 L445.2,38.98 L444.6,38.72 C444.2,38.54 443.81,38.35 443.41,38.15 L442.41,37.64 C442.028062,37.9736845 441.664211,38.3275214 441.32,38.7 C438.660661,41.3103776 437.183188,44.8938809 437.23,48.62 C437.23,55.77 442.35,61.57 448.67,61.57 C451.020055,61.5594335 453.298494,60.760043 455.14,59.3 C456.155636,58.5490659 457.023575,57.6167087 457.7,56.55 C458.359883,55.5069998 458.820985,54.350854 459.06,53.14 C459.27214,52.0590774 459.299192,50.9499795 459.14,49.86 C459.093964,49.5089225 459.023798,49.1614332 458.93,48.82 L458.93,48.82 Z" id="Shape"></path>
            <path d="M500.74,48.82 C500.572165,48.3338459 500.357839,47.8650094 500.1,47.42 C499.606115,46.5420333 498.97094,45.751444 498.22,45.08 C497.296743,44.241554 496.291712,43.4978312 495.22,42.86 C494.038542,42.1612085 492.82009,41.5269455 491.57,40.96 C490.93,40.67 490.28,40.36 489.57,40.08 L488.57,39.64 L488.06,39.42 L487.62,39.24 L487,39 L486.4,38.74 C486,38.56 485.61,38.37 485.21,38.17 L484.21,37.66 C483.828062,37.9936845 483.464211,38.3475214 483.12,38.72 C480.460661,41.3303776 478.983188,44.9138809 479.03,48.64 C479.03,55.79 484.15,61.59 490.47,61.59 C492.84543,61.5815646 495.147666,60.7671443 497,59.28 C498.015636,58.5290659 498.883575,57.5967087 499.56,56.53 C500.219883,55.4869998 500.680985,54.330854 500.92,53.12 C501.129011,52.0385305 501.152682,50.9294019 500.99,49.84 C500.930667,49.4945627 500.847128,49.1537229 500.74,48.82 L500.74,48.82 Z" id="Shape"></path>
        </g>
    </g>
</svg>