<svg xmlns="http://www.w3.org/2000/svg" viewBox="0 0 566.05 72.47"><defs><style>.cls-1{fill:#f6f7ea;}</style></defs><title>Asset 1</title><g id="Layer_2" data-name="Layer 2"><g id="Layer_1-2" data-name="Layer 1"><polygon class="cls-1" points="21.42 10.85 32.79 10.85 32.79 33.46 53.77 10.85 67.52 10.85 46.46 32.79 68.47 62.56 54.81 62.56 38.78 40.55 32.79 46.76 32.79 62.56 21.42 62.56 21.42 10.85"/><rect class="cls-1" x="78.82" y="10.85" width="11.38" height="51.71"/><polygon class="cls-1" points="118.12 21.34 102.38 21.34 102.38 10.85 145.23 10.85 145.23 21.34 129.5 21.34 129.5 62.56 118.12 62.56 118.12 21.34"/><path class="cls-1" d="M152.4,36.86v-.15c0-14.7,11.08-26.74,27-26.74,9.75,0,15.59,3.25,20.39,8l-7.24,8.35c-4-3.62-8.05-5.84-13.22-5.84-8.72,0-15,7.24-15,16.1v.15c0,8.86,6.13,16.25,15,16.25,5.91,0,9.53-2.36,13.59-6.06l7.24,7.31c-5.32,5.69-11.23,9.24-21.2,9.24-15.22,0-26.52-11.75-26.52-26.59"/><polygon class="cls-1" points="212.16 10.85 223.54 10.85 223.54 31.32 244.52 31.32 244.52 10.85 255.9 10.85 255.9 62.56 244.52 62.56 244.52 41.8 223.54 41.8 223.54 62.56 212.16 62.56 212.16 10.85"/><polygon class="cls-1" points="271.27 10.85 310.27 10.85 310.27 20.97 282.57 20.97 282.57 31.46 306.95 31.46 306.95 41.58 282.57 41.58 282.57 52.44 310.64 52.44 310.64 62.56 271.27 62.56 271.27 10.85"/><polygon class="cls-1" points="323.72 10.85 334.21 10.85 358.44 42.69 358.44 10.85 369.67 10.85 369.67 62.56 359.99 62.56 334.95 29.69 334.95 62.56 323.72 62.56 323.72 10.85"/><path class="cls-1" d="M442.75,26.62a17.34,17.34,0,0,0,3,1.82c.57.28,1.17.55,1.8.81l1,.38.49.19.48.17.27.1.14,0,.24.09.58.24,1.08.46L454,32.06l.07-.08A11.87,11.87,0,0,0,457.92,23a12.23,12.23,0,0,0-2.59-7.66A8.89,8.89,0,0,0,454.12,14a8.17,8.17,0,0,0-3.93-2l-.56-.09-.55-.05h-.59l-.55,0a8.92,8.92,0,0,0-2.2.43,8.06,8.06,0,0,0-3.59,2.39,8.57,8.57,0,0,0-1.81,3.57,10.77,10.77,0,0,0-.24,3.55,3.87,3.87,0,0,0,0,.39,3.47,3.47,0,0,1,.06.41l0,.29V23c0-.18,0,0,0-.07l0,.09c0,.12,0,.24.09.35a5.25,5.25,0,0,0,.54,1.22,6.51,6.51,0,0,0,.78,1A9.14,9.14,0,0,0,442.75,26.62Z"/><path class="cls-1" d="M391.43,0H0V72.47H566V0Zm-.66,71.81H.65V.66H390.77Zm34.31-9.13h-13c-.82,0,.21-1,.7-1.47a6.06,6.06,0,0,0,1.71-3.9V21.45a13,13,0,0,1-1.88.26l-.18,0v0h-.06c-.64,0-.63-.47-.18-.65a22.34,22.34,0,0,0,10.47-10.21c.09-.2.19-.27.29-.21.18-.11.36.22.36,1,0,7.88,0,43.93,0,45.64A7.06,7.06,0,0,0,424.44,61C424.85,61.6,426,62.68,425.08,62.68Zm42.54-14.2v.38a.85.85,0,0,1,0,.11l0,.15,0,.15c0-.06,0,.12,0,.12v.15l-.1.77a14.7,14.7,0,0,1-2.22,5.78,13.17,13.17,0,0,1-4.3,4,15.3,15.3,0,0,1-2.5,1.19,21,21,0,0,1-2.54.74,31.17,31.17,0,0,1-5,.67c-.41,0-.81,0-1.23,0s-.78,0-1.21,0c-.81,0-1.62,0-2.44-.08a36.82,36.82,0,0,1-5.06-.59,16.32,16.32,0,0,1-5.23-1.92,11.62,11.62,0,0,1-5.39-7.07c-.06-.25-.13-.5-.18-.75l-.13-.76c0-.25-.06-.51-.08-.76,0-.06,0-.12,0-.19v-.21l0-.42v-.21c0-.07,0-.15,0-.19V49c0-.06,0,.08,0-.14v-.1l0-.21a8.08,8.08,0,0,1,.1-.83c0-.27.09-.54.17-.81A11.22,11.22,0,0,1,431.41,44a13.55,13.55,0,0,1,3.86-4.2,20.69,20.69,0,0,1,4.6-2.5q.58-.23,1.17-.43a21.22,21.22,0,0,1-4.63-3.65,15.07,15.07,0,0,1-2-2.62,12.81,12.81,0,0,1-1.33-3.16,12.26,12.26,0,0,1-.43-3.37c0-.28,0-.55,0-.82V23a.91.91,0,0,0,0-.14v-.11l0-.29c0-.15.08-.49.13-.77a7.87,7.87,0,0,1,.18-.78,12.52,12.52,0,0,1,2.84-5.27,13.67,13.67,0,0,1,4.55-3.26A17.84,17.84,0,0,1,445.44,11a20.63,20.63,0,0,1,2.46-.18h1.21c.42,0,.83,0,1.23.08a23.92,23.92,0,0,1,5,.92,14.2,14.2,0,0,1,4.88,2.51,11.24,11.24,0,0,1,3.44,4.78,10.87,10.87,0,0,1,.66,3c0,.26,0,.51,0,.77v.42l0,.29c0,.16-.05.5-.09.77l-.07.42c0,.13-.06.25-.09.38A11.29,11.29,0,0,1,462.94,28a14.77,14.77,0,0,1-1.66,2.44,11.17,11.17,0,0,1-4.47,3.12c.63.38,1.25.78,1.87,1.2A29,29,0,0,1,463,38.35a20.12,20.12,0,0,1,2,2.36,16.24,16.24,0,0,1,1.63,2.87,10.2,10.2,0,0,1,.91,3.35c0,.29,0,.59.05.88v.67Zm41.81,0v.38s0,.09,0,.11l0,.15,0,.15c0-.06,0,.12,0,.12v.15l-.1.77A14.7,14.7,0,0,1,507,56.07a13.18,13.18,0,0,1-4.3,4,15.31,15.31,0,0,1-2.5,1.19,21,21,0,0,1-2.54.74,31.18,31.18,0,0,1-5,.67c-.41,0-.81,0-1.23,0s-.78,0-1.21,0c-.81,0-1.62,0-2.44-.08a36.82,36.82,0,0,1-5.06-.59,16.32,16.32,0,0,1-5.23-1.92,11.62,11.62,0,0,1-5.39-7.07c-.06-.25-.13-.5-.18-.75l-.13-.76c0-.25-.06-.51-.08-.76,0-.06,0-.12,0-.19v-.21l0-.42v-.21c0-.07,0-.15,0-.19V49c0-.06,0,.08,0-.14v-.1l0-.21c0-.28.05-.56.1-.83s.09-.54.17-.81A11.19,11.19,0,0,1,473.22,44a13.54,13.54,0,0,1,3.86-4.2,20.66,20.66,0,0,1,4.6-2.5c.39-.16.78-.3,1.17-.43a21.22,21.22,0,0,1-4.63-3.65,15.07,15.07,0,0,1-2-2.62,12.82,12.82,0,0,1-1.33-3.16,12.26,12.26,0,0,1-.43-3.37c0-.28,0-.55,0-.82V23a.91.91,0,0,0,0-.14v-.11l0-.29c0-.15.08-.49.13-.77a7.87,7.87,0,0,1,.18-.78,12.52,12.52,0,0,1,2.84-5.27,13.68,13.68,0,0,1,4.55-3.26A17.84,17.84,0,0,1,487.25,11a20.61,20.61,0,0,1,2.46-.18h1.21c.42,0,.83,0,1.23.08a23.92,23.92,0,0,1,5,.92A14.2,14.2,0,0,1,502,14.34a11.24,11.24,0,0,1,3.44,4.78,10.87,10.87,0,0,1,.66,3c0,.26,0,.51,0,.77v.42l0,.29c0,.16-.05.5-.09.77l-.07.42c0,.13-.06.25-.09.38A11.29,11.29,0,0,1,504.75,28a14.71,14.71,0,0,1-1.66,2.44,11.17,11.17,0,0,1-4.47,3.12c.63.38,1.25.78,1.87,1.2a29.07,29.07,0,0,1,4.37,3.59,20.12,20.12,0,0,1,2,2.36,16.24,16.24,0,0,1,1.63,2.87,10.2,10.2,0,0,1,.91,3.35c0,.29,0,.59.05.88v.67Zm21.33,13.81,0,0a8.15,8.15,0,0,1-1.37.16,14.74,14.74,0,0,1-4.18-.32c-.32-.08-.64-.17-1-.27-5.34-1.14-10.63-4.57-10.63-11,0-4.29,2.62-7,5.74-7s5.58,3,5.56,6.53c0,3.33-1.68,5.56-3.9,5.88a5.26,5.26,0,0,0,2.55,4l.21.13a9.92,9.92,0,0,0,3.42,1.11,12.29,12.29,0,0,0,2,.11,8.43,8.43,0,0,0,2-.27,9.4,9.4,0,0,0,3-1.58,20.33,20.33,0,0,0,2-2,13.22,13.22,0,0,0,2.1-7.38c0-7.66-5.69-13.61-12.26-16.88,4.6-3.28,12.27-9.43,13.11-10.72-4.61,1.45-10.44-2.18-16.19-2.18-2.39,0-4.35.63-5.37,1.91-.28.36-.61.22-.58-.26.45-7.58,4.38-11.62,10.27-11.62,4.34,0,8.82,2.74,12.77,2.74a5.3,5.3,0,0,0,4.61-2c.17-.24.46-.17.45.13-.3,9.34-5.26,13.2-10.33,17.43,6.6,3.38,11.8,9.07,11.8,16.87S540.24,60.3,530.76,62.29Z"/><path class="cls-1" d="M484.56,26.62a17.34,17.34,0,0,0,3,1.82c.57.28,1.17.55,1.8.81l1,.38.49.19.48.17.28.1.14,0,.24.09.58.24,1.08.46,2.29,1.14.07-.08A11.88,11.88,0,0,0,499.73,23a12.23,12.23,0,0,0-2.59-7.66A8.89,8.89,0,0,0,495.93,14,8.17,8.17,0,0,0,492,12l-.56-.09-.55-.05h-.59l-.55,0a8.94,8.94,0,0,0-2.2.43A8.06,8.06,0,0,0,484,14.73a8.59,8.59,0,0,0-1.81,3.57,10.82,10.82,0,0,0-.24,3.55c0,.14,0,.29,0,.39a3.47,3.47,0,0,1,.06.41l0,.29V23c0-.18,0,0,0-.07l0,.09c0,.12,0,.24.09.35a5.25,5.25,0,0,0,.54,1.22,6.57,6.57,0,0,0,.78,1A9.14,9.14,0,0,0,484.56,26.62Z"/><path class="cls-1" d="M458.93,48.82a7.91,7.91,0,0,0-.64-1.4,9.15,9.15,0,0,0-1.88-2.34,18.65,18.65,0,0,0-3-2.22,38,38,0,0,0-3.65-1.9c-.64-.29-1.29-.6-2-.88l-1-.44-.51-.22-.44-.18-.61-.26-.6-.26c-.4-.18-.79-.37-1.19-.57l-1-.51a14.25,14.25,0,0,0-1.09,1.06,13.66,13.66,0,0,0-4.09,9.92c0,7.15,5.12,12.95,11.44,12.95a10.49,10.49,0,0,0,6.47-2.27,10.24,10.24,0,0,0,2.56-2.75,10,10,0,0,0,1.36-3.41,9.73,9.73,0,0,0,.08-3.28A7.71,7.71,0,0,0,458.93,48.82Z"/><path class="cls-1" d="M500.74,48.82a8,8,0,0,0-.64-1.4,9.17,9.17,0,0,0-1.88-2.34,18.65,18.65,0,0,0-3-2.22,38,38,0,0,0-3.65-1.9c-.64-.29-1.29-.6-2-.88l-1-.44-.51-.22-.44-.18L487,39l-.6-.26c-.4-.18-.79-.37-1.19-.57l-1-.51a14.25,14.25,0,0,0-1.09,1.06,13.66,13.66,0,0,0-4.09,9.92c0,7.15,5.12,12.95,11.44,12.95A10.49,10.49,0,0,0,497,59.28a10.24,10.24,0,0,0,2.56-2.75,10,10,0,0,0,1.36-3.41,9.72,9.72,0,0,0,.07-3.28A7.48,7.48,0,0,0,500.74,48.82Z"/></g></g></svg>