<?xml version="1.0" encoding="UTF-8"?>
<svg width="296px" height="492px" viewBox="0 0 296 492" version="1.1" xmlns="http://www.w3.org/2000/svg" xmlns:xlink="http://www.w3.org/1999/xlink">
    <!-- Generator: Sketch 46.2 (44496) - http://www.bohemiancoding.com/sketch -->
    <title>logo-stacked</title>
    <desc>Created with Sketch.</desc>
    <defs></defs>
    <g id="HP/Landing" stroke="none" stroke-width="1" fill="none" fill-rule="evenodd">
        <g id="logo-stacked" style="mix-blend-mode: multiply;" transform="translate(1.000000, 1.000000)">
            <polygon id="Stroke-1" stroke="#000000" points="0.0777642776 490.312561 294.220506 490.312561 294.220506 0.080094158 0.0777642776 0.080094158"></polygon>
            <polygon id="Stroke-3" stroke="#000000" points="0.0777642776 275.169074 294.220506 275.169074 294.220506 215.225911 0.0777642776 215.225911"></polygon>
            <path d="M249.274783,430.353788 C249.274783,438.727378 247.373601,447.986323 241.905372,456.185172 C240.225528,458.132952 237.317837,461.185095 234.838844,463.265679 C231.914845,465.721373 227.071023,468.095521 224.380011,468.813124 C221.688999,469.530727 219.554829,469.679839 217.432308,469.759055 C215.309787,469.840601 212.774877,469.705468 210.419368,469.388604 C208.070848,469.011164 202.010829,467.876512 198.432133,465.504694 C198.164197,465.325293 197.928879,465.1855 197.70987,465.064346 C196.728991,464.358393 195.829657,463.603511 194.97692,462.825331 C196.407467,465.868155 198.968006,468.717599 202.211199,471.129025 C202.618928,471.240859 203.017338,471.371333 203.429727,471.471518 C208.117446,472.5852 213.068442,472.874106 218.066035,472.606169 C219.664333,472.559572 221.264961,472.349882 222.85161,472.030689 C222.816662,472.049328 222.781713,472.067967 222.746765,472.084276 C231.197241,470.311237 238.937104,467.447814 245.784623,463.726995 C246.159733,463.316936 246.513875,462.923186 246.81676,462.569044 C252.282659,454.372525 254.186171,445.111251 254.183841,436.73766 C254.186171,422.189887 248.312543,409.403503 239.270277,398.914382 C245.472419,408.068482 249.274783,418.643809 249.274783,430.353788" id="Fill-4" fill="#000000"></path>
            <path d="M271.506502,293.866831 C267.363975,299.612316 261.03369,300.800555 255.38373,300.800555 C241.55822,300.800555 225.880454,291.222416 210.698953,291.222416 C190.070192,291.222416 176.300599,305.37877 174.73259,331.904458 C174.634735,333.586632 175.776376,334.054938 176.768905,332.801462 C177.810362,331.48974 179.154703,330.401685 180.706403,329.481383 C184.553036,308.652252 197.402326,297.603959 215.608012,297.603959 C230.789512,297.603959 246.467278,307.182097 260.295118,307.182097 C264.260574,307.182097 268.545224,306.560019 272.189157,304.223149 C272.659793,301.129068 272.971997,297.853256 273.088491,294.342126 C273.123439,293.28669 272.098292,293.044383 271.506502,293.866831" id="Fill-5" fill="#000000"></path>
            <path d="M244.708218,341.099331 C234.871463,349.68727 217.858676,363.046805 206.344407,371.245654 C208.986491,372.562036 211.586638,374.008892 214.121548,375.565252 C228.063552,363.379978 232.881745,358.566445 236.921758,355.374509 C242.564728,350.66116 248.16576,346.080616 253.216941,340.973518 C251.954146,341.157578 252.250041,333.734579 252.250041,333.734579 C252.250041,333.734579 247.520384,338.685575 244.708218,341.099331" id="Fill-6" fill="#000000"></path>
            <path d="M182.977803,407.641881 C172.036685,407.66518 162.877925,417.159442 162.880255,432.182511 C162.882585,442.275553 166.67097,450.234425 172.52363,456.322402 C169.555362,451.334128 167.791643,445.44652 167.791643,438.566383 C167.789313,423.543315 176.948073,414.049052 187.886861,414.025753 C192.336933,414.000124 196.379275,415.728896 199.624799,418.599308 C196.246472,412.047685 190.128206,407.602273 182.977803,407.641881" id="Fill-7" fill="#000000"></path>
            <path d="M31.9577509,360.989753 C33.9311596,364.421667 36.3425859,367.424883 38.8308982,370.155503 C42.9408072,374.514709 47.3838891,378.016519 51.8898779,380.963818 C49.4598126,379.020698 47.0810047,376.879538 44.8093713,374.472771 C42.3187291,371.739822 39.9096328,368.736606 37.9362241,365.307022 C35.9371867,361.903066 34.3086003,358.147299 33.2671437,354.24242 C32.190739,350.34686 31.722433,346.323156 31.762041,342.460214 C31.7410721,341.488654 31.8272776,340.542723 31.8762051,339.589802 L31.9228027,338.881518 C31.9274625,338.678819 31.9251326,339.084218 31.9391119,338.382924 L31.9577509,338.25478 L31.9996888,337.998493 L32.1651103,336.971016 C32.2513159,336.432814 32.4307167,335.239915 32.6077876,334.296313 C32.7732091,333.261847 32.9922178,332.446388 33.222876,331.565694 C35.014554,324.601681 38.541993,318.2015 43.1551562,313.13401 C47.75667,308.033901 53.3646922,304.289784 59.0775589,301.715266 C62.1693102,300.321997 65.2936799,299.271221 68.4157196,298.458093 C69.4129084,297.996777 70.4310662,297.579728 71.4818422,297.237236 C73.9561752,296.419448 76.551662,295.923183 79.1774372,295.741452 C79.8181544,295.715824 80.5287679,295.669226 81.1158977,295.662236 L83.1708523,295.706504 L85.0976634,295.890565 C85.7430402,295.98143 86.3954068,296.093264 87.0431135,296.200439 C87.1060203,296.214418 87.1665972,296.230727 87.2295039,296.244707 L89.2378609,296.291304 C90.6940361,296.358871 92.138562,296.438087 93.5574591,296.55924 C99.2563466,297.046185 105.03445,297.987457 110.919728,299.769816 C114.957411,300.995333 119.044021,302.696145 122.911622,305.023696 C122.611068,304.762749 122.317503,304.490153 122.009959,304.240856 C116.777047,299.981835 110.800904,297.230246 104.941255,295.452547 C99.0583068,293.667859 93.2802034,292.728917 87.578986,292.241972 C86.1624187,292.118488 84.7178929,292.041602 83.2593877,291.976366 L81.2021033,291.922778 L79.0283249,291.922778 C76.1718915,291.964716 73.3061386,292.167416 70.4287363,292.554176 C64.6832512,293.337016 58.8352514,294.81416 53.0990858,297.397997 C47.3885489,299.972515 41.7805268,303.714303 37.1766831,308.814411 C32.5658497,313.884231 29.0360809,320.279753 27.2444029,327.248425 C27.0160746,328.12912 26.7947359,328.944578 26.6293144,329.974385 C26.4545734,330.922647 26.2728427,332.113216 26.1866372,332.656078 L26.0212156,333.678895 L25.9816077,333.937512 L25.9606388,334.063325 C25.9489894,334.766949 25.9513192,334.35922 25.9443296,334.56425 L25.9000619,335.274863 C25.8488045,336.225454 25.7649288,337.169056 25.7835678,338.140616 C25.7439599,342.005888 26.2122658,346.029591 27.2910005,349.925151 C28.3301271,353.832361 29.9587135,357.585798 31.9577509,360.989753" id="Fill-8" fill="#000000"></path>
            <path d="M50.951635,384.450018 C45.4461276,386.658745 39.9662489,389.442952 34.8521614,393.208039 C29.7147751,396.924198 24.9105617,401.700453 21.3365251,407.895605 C19.5611562,410.989686 18.12362,414.440239 17.2172965,418.156398 C16.9703292,419.076701 16.8095675,420.029622 16.644146,420.982543 C16.4554256,421.933134 16.3738798,422.907024 16.2830145,423.880914 L16.215448,424.614827 L16.1828296,424.980618 C16.1874894,425.747148 16.1804998,425.267193 16.1781699,425.467563 L16.1735101,425.598036 L16.1269125,426.630173 L16.0803149,427.65998 C16.0686655,427.795113 16.077985,428.081689 16.0849747,428.321666 L16.1082735,429.062568 L16.1688504,430.551362 L16.2037986,431.292264 C16.2177778,431.532242 16.2457364,431.744261 16.2667053,431.970259 C16.3599005,432.860273 16.4437762,433.752618 16.5579404,434.642632 L17.0192567,437.301025 C17.1846782,438.18405 17.422326,439.055425 17.636675,439.93146 C18.5686272,443.421621 19.9572359,446.797618 21.7559036,449.910338 C25.292662,456.10782 30.5279033,461.114733 36.319986,464.576935 C32.9626284,461.676234 29.9990205,458.197723 27.7320468,454.227607 C25.9333792,451.114886 24.5447704,447.73889 23.6151481,444.251059 C23.3984693,443.375024 23.1631513,442.503648 22.9954,441.618294 L22.5364135,438.9599 C22.4245793,438.069886 22.3383737,437.177542 22.2428486,436.287527 C22.2218797,436.061529 22.196251,435.84951 22.1822717,435.611862 L22.1449936,434.86863 L22.0867466,433.382167 L22.0634478,432.638935 C22.0564582,432.396627 22.0448088,432.117042 22.058788,431.974919 L22.1053856,430.947442 L22.1519832,429.917634 L22.156643,429.787161 C22.156643,429.584462 22.1659625,430.064417 22.1613028,429.297886 L22.1939211,428.929765 L22.2591577,428.198183 C22.352353,427.224293 22.4338988,426.248073 22.6226191,425.299811 C22.7880406,424.34456 22.9464725,423.393969 23.1980996,422.473666 C24.0997633,418.757507 25.5372995,415.306954 27.3126684,412.215203 C30.8890348,406.017721 35.6909183,401.243796 40.8306345,397.525307 C45.9097738,393.783519 51.3547043,391.015621 56.8229337,388.811554 C57.6593607,387.940179 59.1085463,386.56089 60.0148698,385.750091 C59.1551439,385.288775 57.0256332,384.340514 54.9194214,382.895988 C53.6775951,383.324686 52.1818119,383.956084 50.951635,384.450018" id="Fill-9" fill="#000000"></path>
            <path d="M100.816668,365.974765 L100.560381,366.259011 C100.560381,366.259011 104.118108,368.03205 107.263447,369.847027 C115.075536,362.724582 120.117397,351.566785 120.117397,339.00174 C120.117397,328.615133 116.671504,319.188437 111.068141,312.205785 C109.828645,310.502643 108.414408,308.876386 106.790481,307.408562 C105.110637,305.87317 103.204795,304.549798 101.16382,303.445435 C102.633974,304.822394 103.945697,306.318178 105.089668,307.888517 C110.69536,314.871169 114.141254,324.300195 114.141254,334.684472 C114.141254,347.503474 108.901353,358.87795 100.816668,365.974765" id="Fill-10" fill="#000000"></path>
            <path d="M124.292776,431.441376 C124.292776,431.441376 123.670697,428.515046 121.413043,424.35854 C120.019775,421.707136 117.762121,418.89963 114.817152,416.159691 C112.354468,413.909026 109.463087,411.69564 106.2828,409.647675 C107.172814,410.374598 108.03254,411.10385 108.838679,411.844752 C111.785978,414.582362 114.041302,417.389867 115.4369,420.038941 C116.331574,421.972742 117.736492,424.174479 118.5636,428.533685 C119.108792,431.418077 119.064524,436.087158 118.300323,440.006017 C117.540782,443.915556 116.0217,447.992847 113.547367,451.932674 C111.310682,455.462443 108.270188,458.83145 104.572668,461.550421 C98.1305484,466.559664 90.3324387,469.495313 81.9239003,469.495313 C75.2720917,469.495313 69.0047134,467.650048 63.4828968,464.399864 C69.5499054,469.693353 76.9915434,473.05304 85.0995273,473.691428 C85.1717536,473.686768 85.2346603,473.689098 85.3092165,473.686768 C86.7653918,473.668129 88.1749694,473.574934 89.605516,473.519016 C91.4135032,473.402522 93.2354697,473.241761 95.0644258,473.06003 C100.726035,471.89975 105.984575,469.418427 110.551141,465.865359 C114.246331,463.146389 117.289155,459.779712 119.52584,456.247613 C122.000173,452.310115 123.516925,448.232824 124.278796,444.323285 C125.040667,440.404426 125.082605,436.606721 124.539743,432.848624 L124.292776,431.441376 Z" id="Fill-11" fill="#000000"></path>
            <path d="M143.670158,87.9522328 C145.643567,91.3818168 148.054993,94.3873625 150.543305,97.1156525 C154.653214,101.477189 159.096296,104.978999 163.602285,107.926298 C161.17222,105.985507 158.795742,103.846677 156.521778,101.432921 C154.031136,98.7046309 151.62204,95.6990852 149.648631,92.2695012 C147.649594,88.865546 146.021007,85.1121086 144.979551,81.2048992 C143.903146,77.3093391 143.43484,73.2833058 143.474448,69.4226939 C143.453479,68.4511338 143.539685,67.5052024 143.588612,66.5546111 L143.63521,65.8439976 C143.63987,65.641298 143.63987,66.0466972 143.651519,65.3454032 L143.670158,65.2172598 L143.712096,64.9609729 L143.875187,63.9358256 C143.963723,63.3952933 144.145454,62.2000647 144.320195,61.2564631 C144.485616,60.2243261 144.704625,59.4088679 144.935283,58.5258432 C146.726961,51.5618307 150.2544,45.1639791 154.867563,40.0964892 C159.469077,34.996381 165.077099,31.2522631 170.789966,28.6754154 C173.881717,27.2821469 177.006087,26.2337007 180.130457,25.4205725 C181.125315,24.9592562 182.143473,24.5422076 183.194249,24.1997151 C185.668582,23.3819271 188.264069,22.8856626 190.889844,22.7039319 C191.530561,22.6806331 192.241175,22.6317056 192.828305,22.624716 L194.883259,22.6713136 L196.81007,22.8507144 C197.455447,22.9439096 198.110144,23.0580737 198.755521,23.1629184 C198.818427,23.1768976 198.881334,23.1932068 198.941911,23.2071861 L200.950268,23.2561136 C202.406443,23.3213502 203.850969,23.4005662 205.269866,23.5193901 C210.968754,24.0086649 216.746857,24.9499366 222.629805,26.7322952 C226.669818,27.9578122 230.756428,29.6609548 234.624029,31.9861755 C234.323475,31.7252289 234.02991,31.4526329 233.722366,31.2033357 C228.491784,26.9466441 222.513311,24.1927255 216.653662,22.4150267 C210.770714,20.6326682 204.99261,19.6913965 199.291393,19.2044515 C197.874826,19.0809679 196.4303,19.0040818 194.971795,18.9388452 L192.91451,18.8875878 L190.740732,18.8875878 C187.886628,18.9271958 185.020875,19.1298954 182.141143,19.5166555 C176.395658,20.2994953 170.547658,21.7743096 164.811493,24.358147 C159.100956,26.9349947 153.492934,30.6791126 148.88909,35.7792208 C144.278257,40.8467107 140.748488,47.2445623 138.95681,54.2085748 C138.728482,55.0915995 138.507143,55.9070577 138.341721,56.9391947 C138.16698,57.8827963 137.98525,59.0780249 137.899044,59.6185572 L137.735953,60.6437045 L137.694015,60.8999914 L137.675376,61.0281348 C137.661396,61.7294288 137.663726,61.3240296 137.656737,61.5267292 L137.612469,62.2373427 C137.563541,63.187934 137.477336,64.1338654 137.498305,65.1054255 C137.456367,68.9660374 137.924673,72.9920707 139.003407,76.8876308 C140.044864,80.7948402 141.671121,84.5482776 143.670158,87.9522328" id="Fill-12" fill="#000000"></path>
            <path d="M162.664275,111.411566 C157.158768,113.622622 151.676559,116.40217 146.564801,120.169586 C141.427415,123.888075 136.623202,128.662 133.049165,134.859482 C131.273796,137.951233 129.83626,141.401786 128.932266,145.117946 C128.682969,146.038248 128.522207,146.991169 128.356786,147.94642 C128.168066,148.894682 128.08652,149.868572 127.995654,150.842462 L127.928088,151.576374 L127.89547,151.942165 C127.900129,152.708696 127.89314,152.228741 127.89314,152.43144 L127.88615,152.561914 L127.839553,153.591721 L127.792955,154.621528 C127.778976,154.761321 127.790625,155.043236 127.797615,155.285544 L127.820913,156.026446 L127.88149,157.512909 L127.916439,158.256141 C127.930418,158.493789 127.958376,158.705808 127.979345,158.931807 C128.072541,159.821821 128.158746,160.714165 128.27291,161.604179 L128.731897,164.262573 C128.897318,165.147928 129.134966,166.019303 129.349315,166.895338 C130.281267,170.383169 131.667546,173.759166 133.468544,176.871886 C137.002972,183.069368 142.238213,188.076281 148.032626,191.538483 C144.675268,188.637782 141.709331,185.15927 139.444687,181.189154 C137.646019,178.076434 136.25741,174.700437 135.327788,171.212606 C135.111109,170.336571 134.875791,169.465196 134.70804,168.579841 L134.249054,165.921448 C134.134889,165.031434 134.051014,164.139089 133.955489,163.249075 C133.93452,163.023077 133.908891,162.811057 133.892582,162.57341 L133.857634,161.830178 L133.799387,160.343714 L133.776088,159.600482 C133.769098,159.358175 133.757449,159.078589 133.771428,158.938796 L133.818026,157.908989 L133.862293,156.879182 L133.869283,156.748709 C133.869283,156.546009 133.878603,157.025964 133.873943,156.259434 L133.904231,155.893643 L133.971798,155.15973 C134.064993,154.18584 134.146539,153.21195 134.335259,152.263689 C134.498351,151.308438 134.659112,150.355517 134.91074,149.435214 C135.812403,145.719055 137.249939,142.268502 139.025308,139.176751 C142.601675,132.979269 147.403558,128.205344 152.543275,124.484525 C157.622414,120.745067 163.067344,117.977169 168.535574,115.775432 C169.372001,114.904056 170.821186,113.522437 171.72751,112.711639 C170.870114,112.250323 168.738273,111.302061 166.629731,109.859865 C165.390235,110.286233 163.892122,110.917631 162.664275,111.411566" id="Fill-13" fill="#000000"></path>
            <path d="M212.530239,92.937478 L212.271623,93.2217234 C212.271623,93.2217234 215.83168,94.9947624 218.977019,96.8097392 C226.789108,89.6872948 231.830969,78.5294975 231.830969,65.9644524 C231.830969,55.5801754 228.385076,46.1511494 222.779383,39.1684978 C221.542217,37.4653552 220.12798,35.8390987 218.501723,34.3712741 C216.821879,32.8358829 214.918367,31.5101809 212.877392,30.4081475 C214.347546,31.7851068 215.659269,33.2785601 216.80324,34.8512294 C222.408932,41.833881 225.854826,51.2605772 225.854826,61.647184 C225.854826,74.4685159 220.614925,85.8406622 212.530239,92.937478" id="Fill-14" fill="#000000"></path>
            <path d="M236.25448,159.813433 L236.005183,158.403856 C236.005183,158.403856 235.385434,155.477526 233.12778,151.321019 C231.732182,148.669615 229.476858,145.862109 226.529559,143.1245 C224.066875,140.869176 221.175494,138.658119 217.995207,136.607824 C218.887551,137.334747 219.744947,138.068659 220.553416,138.807232 C223.498385,141.544841 225.753709,144.352347 227.149307,147.003751 C228.046311,148.935222 229.448899,151.136959 230.276007,155.496165 C230.821199,158.380557 230.776931,163.047307 230.01506,166.968496 C229.253189,170.878035 227.736437,174.955326 225.259774,178.895154 C223.025419,182.424923 219.982595,185.79393 216.285075,188.5129 C209.845285,193.522143 202.044846,196.457792 193.638637,196.457792 C186.986829,196.457792 180.71712,194.612527 175.197634,191.362344 C181.259983,196.655832 188.70395,200.01785 196.811934,200.651577 C196.88649,200.649247 196.949397,200.651577 197.021624,200.649247 C198.480129,200.630608 199.889706,200.537413 201.320253,200.481496 C203.12824,200.362672 204.947877,200.20424 206.776833,200.022509 C212.440772,198.862229 217.696982,196.380906 222.263548,192.830169 C225.961068,190.111198 229.001562,186.742191 231.238247,183.212422 C233.71258,179.272595 235.231662,175.192974 235.991203,171.285764 C236.755404,167.364576 236.795012,163.566871 236.25448,159.813433" id="Fill-15" fill="#000000"></path>
            <path d="M85.1705886,16.5893938 C84.8444054,16.3843643 84.4786141,16.624342 84.1710699,17.3279659 C77.0742542,33.5858714 58.726446,48.7254343 47.5150614,53.0590118 C45.9400623,53.6671106 45.9144336,55.3283154 48.1604383,55.3283154 C48.2233451,55.3283154 48.2932415,55.3236556 48.3584781,55.3236556 C48.3677976,55.3050166 48.3817769,55.2863775 48.3934263,55.2677385 C48.5821466,55.3050166 48.7941658,55.3283154 49.0364733,55.3283154 C51.2568494,55.3283154 55.6323648,54.4150022 55.6323648,54.4150022 L55.6323648,58.7392603 L55.6323648,179.944299 C55.6323648,184.480576 53.0788158,190.265669 49.6585514,193.609048 C47.9577387,195.270252 44.3534137,198.765073 47.2098471,198.765073 L53.7288525,198.765073 C54.8122469,197.993883 55.842054,197.141146 56.7879854,196.164926 C61.6248172,191.162673 63.090312,183.956353 63.7659773,177.281246 C63.770637,177.239308 63.7939358,177.211349 63.8009255,177.169411 L63.8009255,54.1517258 C72.6731101,48.0707379 83.3136739,37.9450776 86.449693,30.3077296 L86.449693,20.1634303 C86.449693,17.3582543 85.8019862,16.1886543 85.1705886,16.5893938" id="Fill-16" fill="#000000"></path>
            <polygon id="Fill-17" fill="#000000" points="18.3037198 226.287717 27.0570805 226.287717 27.0570805 243.677945 43.198492 226.287717 53.7691594 226.287717 37.5718308 243.167701 54.5077315 266.072755 43.9929812 266.072755 31.6609242 249.136855 27.0570805 253.91078 27.0570805 266.072755 18.3037198 266.072755"></polygon>
            <polygon id="Fill-18" fill="#000000" points="61.3303203 266.073221 70.083681 266.073221 70.083681 226.288183 61.3303203 226.288183"></polygon>
            <polygon id="Fill-19" fill="#000000" points="91.5654114 234.35819 79.4593528 234.35819 79.4593528 226.287484 112.424831 226.287484 112.424831 234.35819 100.318772 234.35819 100.318772 266.072522 91.5654114 266.072522"></polygon>
            <path d="M136.407921,225.603897 C143.912466,225.603897 148.402145,228.106189 152.095006,231.743132 L146.526591,238.166613 C143.458139,235.380076 140.331439,233.676933 136.352004,233.676933 C129.646608,233.676933 124.814436,239.245347 124.814436,246.064907 C124.814436,253.000961 129.532444,258.68354 136.352004,258.68354 C140.89993,258.68354 143.684137,256.866233 146.810837,254.023779 L152.379251,259.65044 C148.287981,264.025955 143.740054,266.754245 136.070088,266.754245 C124.360109,266.754245 115.664995,257.716639 115.664995,246.293235 C115.664995,234.869832 124.190028,225.603897 136.407921,225.603897 Z" id="Fill-20" fill="#000000"></path>
            <polygon id="Fill-21" fill="#000000" points="159.371921 226.287717 168.125282 226.287717 168.125282 242.030719 184.266693 242.030719 184.266693 226.287717 193.017724 226.287717 193.017724 266.072755 184.266693 266.072755 184.266693 250.101425 168.125282 250.101425 168.125282 266.072755 159.371921 266.072755"></polygon>
            <polygon id="Fill-22" fill="#000000" points="202.566739 226.287717 232.575599 226.287717 232.575599 234.074178 211.261853 234.074178 211.261853 242.144883 230.01739 242.144883 230.01739 249.931344 211.261853 249.931344 211.261853 258.286295 232.859844 258.286295 232.859844 266.072755 202.566739 266.072755"></polygon>
            <polygon id="Fill-23" fill="#000000" points="240.645838 226.287717 248.716544 226.287717 267.357917 250.78408 267.357917 226.287717 275.997114 226.287717 275.997114 266.072755 268.553146 266.072755 249.285035 240.779574 249.285035 266.072755 240.645838 266.072755"></polygon>
            <path d="M148.085281,421.384447 C148.054993,420.36396 147.994416,419.336483 147.898891,418.311335 C147.635614,414.171138 146.288944,410.217331 144.718604,406.571068 C143.120306,402.915485 141.156217,399.572107 139.010397,396.529283 C136.848268,393.495779 134.497419,390.779138 132.069683,388.283836 C127.207223,383.304882 121.988291,379.302147 116.771689,375.702482 C114.60024,374.225338 112.414812,372.836729 110.222395,371.506368 C115.932932,369.188137 121.655118,365.707295 125.886181,360.567579 C128.071609,357.974422 130.031038,355.122648 131.710882,352.037887 C133.383736,348.955455 134.716428,345.612077 135.522566,342.119586 C135.629741,341.679239 135.732255,341.25287 135.823121,340.796214 L136.056109,339.31208 C136.184252,338.363819 136.338024,337.16859 136.363653,336.625728 L136.42656,335.600581 L136.459178,335.085677 L136.470827,334.83172 L136.475487,334.286528 L136.473157,334.118777 C136.447529,333.221773 136.452188,332.324769 136.377632,331.432424 C136.116686,327.849068 135.312877,324.300661 134.064061,320.959612 C131.585068,314.251886 127.218872,308.471453 122.00926,304.24272 C116.776348,299.983699 110.800205,297.22978 104.940556,295.452081 C99.0576078,293.669723 93.2795044,292.726121 87.578287,292.239176 C86.1617197,292.120352 84.7171939,292.041136 83.2586888,291.9759 L81.2014044,291.926972 L79.0276259,291.924642 C76.1711925,291.96192 73.3054396,292.16462 70.4280373,292.55138 C64.6825522,293.33655 58.8345524,294.813694 53.0983868,297.395202 C47.3878499,299.972049 41.7798278,303.713837 37.1759841,308.818605 C32.5651508,313.881435 29.0353819,320.281617 27.2437039,327.247959 C27.0153756,328.128654 26.794037,328.941782 26.6286155,329.978579 C26.4538744,330.922181 26.2721438,332.117409 26.1859382,332.655612 L26.0205167,333.680759 L25.9809087,333.939376 L25.9599398,334.065189 C25.9482904,334.766483 25.9506203,334.361084 25.9436306,334.563784 L25.8993629,335.274397 C25.8504354,336.224988 25.7642298,337.16859 25.7828689,338.14248 C25.7432609,342.005422 26.2115669,346.026795 27.2903015,349.922355 C28.3294282,353.829565 29.9580146,357.583002 31.957052,360.989287 C33.9304607,364.421201 36.3418869,367.426747 38.8301992,370.155037 C43.8953592,375.525411 49.4614435,379.612021 55.0368473,382.939091 C53.6692075,383.400407 52.3062275,383.903661 50.9502371,384.448853 C45.4470596,386.66224 39.9648509,389.439457 34.8507634,393.204544 C29.7133771,396.925363 24.9091637,401.701618 21.3351272,407.89677 C19.5597583,410.988521 18.1222221,414.441404 17.2182285,418.155233 C16.9689313,419.077866 16.8081695,420.026127 16.642748,420.981378 C16.4540277,421.931969 16.3724819,422.905859 16.2816166,423.879749 L16.21405,424.613662 L16.1814317,424.979453 C16.1860915,425.745984 16.1791018,425.266028 16.1791018,425.468728 L16.1721122,425.601531 L16.1255146,426.629008 L16.078917,427.658815 C16.0672676,427.798608 16.0765871,428.080524 16.0835767,428.322831 L16.1068755,429.063733 L16.1674524,430.552527 L16.2024006,431.293429 C16.2163799,431.531077 16.2443385,431.743096 16.2653074,431.969094 C16.3585026,432.861438 16.4447082,433.753782 16.5565425,434.641467 L17.0178588,437.29986 C17.1832803,438.185215 17.4209281,439.05659 17.6352771,439.932625 C18.5672292,443.420456 19.955838,446.796453 21.7545057,449.909173 C25.3285422,456.176552 30.6360098,461.230062 36.5049785,464.694594 C42.3786071,468.215044 48.7368507,470.188452 54.8108489,471.40465 C60.9174655,472.611528 66.791094,473.114782 72.5202699,473.457275 C75.3906826,473.585418 78.2308068,473.711232 81.0755908,473.73919 C82.5643844,473.708902 83.8085405,473.75084 85.3089835,473.685603 C86.7651588,473.664634 88.1747364,473.573769 89.605283,473.517851 C95.3041705,473.14973 101.096253,472.527652 106.99551,471.180981 C109.947469,470.516966 112.918066,469.664229 115.897983,468.587825 C118.868581,467.492781 121.80423,466.106502 124.660664,464.421998 C130.37586,461.07163 135.720606,456.321004 139.711691,450.328552 C143.709766,444.354738 146.309912,437.29986 147.481842,430.10286 L147.842974,427.402528 L147.884912,427.064696 L147.905881,426.892285 C147.9152,426.889955 147.91287,426.267877 147.91986,426.472906 L147.980437,425.955673 L148.038684,425.438439 C148.050333,425.382522 148.052663,425.210111 148.059653,425.065658 L148.071302,424.627641 L148.092271,423.744616 L148.099261,422.917509 L148.085281,421.384447 Z M54.5242736,340.302279 C53.7717223,339.027835 53.1170259,337.639226 52.6510498,336.029279 C52.5089271,335.640188 52.4506801,335.21149 52.3411757,334.792112 L52.2642896,334.472918 C52.2573,334.589412 52.2549701,334.097808 52.2433207,334.717556 L52.2270116,334.587083 L52.199053,334.330796 L52.0872187,333.296329 C52.003343,332.464561 51.9660649,332.29448 51.8821893,331.868112 C51.788994,331.534939 51.7773446,330.989747 51.7097781,330.509792 C51.3579662,326.600252 51.4954291,322.420447 52.5508649,318.089199 C53.601641,313.78125 55.6565955,309.352148 58.9021189,305.60104 C62.1243435,301.840613 66.5254876,298.851377 71.4834732,297.2391 C73.9554763,296.418982 76.5509631,295.922717 79.1767383,295.740986 C79.8174554,295.715358 80.5280689,295.66876 81.1151988,295.661771 L83.1701533,295.710698 L85.0969644,295.890099 C85.7423413,295.980964 86.3947078,296.097458 87.0424145,296.202303 C92.2124192,297.190172 97.0445912,299.655186 100.814338,303.094089 C102.435934,304.559584 103.850172,306.18817 105.089668,307.888983 C110.693031,314.871634 114.138924,324.298331 114.138924,334.684938 C114.138924,347.50394 108.901353,358.880746 100.816668,365.977561 L100.57902,366.268796 C100.57902,366.268796 96.6904493,364.325676 92.5642311,362.291691 C91.2991061,361.734849 90.0293212,361.203636 88.766526,360.679413 L86.7441899,359.856965 L85.903103,359.526122 L85.4184879,359.353711 L84.4585772,359.011219 L82.7903828,358.39846 L81.0732609,357.743764 L77.7182331,356.420392 C75.5164961,355.528048 73.4032946,354.586776 71.4042572,353.596577 C67.4201617,351.599869 63.8414654,349.484338 61.0176503,347.240663 C59.5707946,346.152609 58.354597,345.003978 57.2665429,343.878646 C56.2017875,342.734674 55.3047836,341.569734 54.5242736,340.302279 L54.5242736,340.302279 Z M118.30009,440.004852 C117.540549,443.914391 116.021467,447.991682 113.547134,451.931509 C111.310449,455.461278 108.267625,458.832615 104.572435,461.549256 C98.1303154,466.560829 90.3298758,469.494148 81.9236673,469.494148 C59.8084424,469.494148 41.8800126,449.20322 41.8800126,424.173314 C41.8800126,410.240629 47.4414372,397.778099 56.1854784,389.465086 C57.3946863,388.169672 58.6574815,386.913867 60.0134719,385.748926 C61.1644328,386.366345 62.3153937,386.965124 63.4640248,387.538275 C64.8596231,388.230249 66.2435721,388.908244 67.6391705,389.527993 L69.7220836,390.452955 L71.8725632,391.370928 L73.4196038,392.018635 L75.1926428,392.782835 L78.6921231,394.329876 C81.0220036,395.331725 83.2913071,396.39182 85.5466313,397.423957 C90.0316511,399.51386 94.3675586,401.675989 98.333015,404.082755 C102.310121,406.463893 105.872508,409.129276 108.838446,411.843587 C111.783415,414.581197 114.038739,417.388702 115.436667,420.040106 C116.15194,421.375128 117.023316,422.926828 117.666363,424.928195 C118.30941,426.929563 118.563367,428.53252 118.563367,428.53252 C119.106229,432.288288 119.061961,436.088323 118.30009,440.004852 L118.30009,440.004852 Z" id="Fill-24" fill="#000000"></path>
            <path d="M236.921059,355.374276 C254.679407,340.553906 272.023037,327.03361 273.087792,294.343058 C273.12274,293.287622 272.099923,293.045315 271.505803,293.867763 C267.363276,299.613248 261.035321,300.799157 255.385361,300.799157 C241.557521,300.799157 225.879755,291.221018 210.698255,291.221018 C190.071823,291.221018 176.30223,305.379702 174.73422,331.90539 C174.634036,333.585234 175.775677,334.05587 176.770536,332.802394 C180.344573,328.301065 187.192091,326.108648 195.565681,326.108648 C215.686528,326.108648 236.12191,338.822805 252.249342,333.734346 C249.309033,338.219366 222.445512,359.780079 206.343708,371.247751 C229.358267,382.701443 249.274084,403.551543 249.274084,430.356817 C249.274084,438.728077 247.372902,447.987022 241.904673,456.188201 C240.224829,458.133651 237.317138,461.183465 234.838145,463.268708 C231.914146,465.719742 227.070324,468.09622 224.379312,468.813823 C221.6883,469.529096 219.55413,469.680538 217.431609,469.762084 C215.309088,469.8413 212.774178,469.703837 210.418669,469.391633 C208.070149,469.011863 202.01013,467.877211 198.431434,465.505393 C198.163498,465.325992 197.92818,465.186199 197.709171,465.062715 C192.378405,461.230062 188.760101,456.21616 188.795049,451.069454 C196.553551,449.97208 202.361942,442.162321 202.434169,430.503599 C202.511055,418.0201 193.934765,407.579906 182.977337,407.642813 C172.036219,407.666112 162.877459,417.160374 162.879789,432.185773 C162.884449,454.552625 181.395349,466.54219 200.106618,470.540264 C201.194672,470.882757 202.301366,471.197291 203.429028,471.472216 C208.116747,472.585899 213.067743,472.877134 218.065336,472.606868 C219.663634,472.557941 221.264262,472.348252 222.850911,472.031388 C222.815963,472.050027 222.781014,472.066336 222.746066,472.087305 C255.944532,465.123292 278.227508,441.39812 278.227508,414.425095 C278.227508,387.125886 260.026483,367.207738 236.921059,355.374276" id="Fill-25" fill="#000000"></path>
            <path d="M259.799086,148.348325 C259.768798,147.323177 259.708221,146.29803 259.612696,145.272883 C259.349419,141.135015 258.002748,137.181208 256.432409,133.530285 C254.834111,129.877033 252.870022,126.531325 250.721872,123.493161 C248.562073,120.457326 246.211224,117.743016 243.783488,115.247714 C238.921028,110.268759 233.702096,106.263695 228.485494,102.66403 C226.311715,101.186886 224.128617,99.8006067 221.9362,98.4679151 C227.644407,96.1473542 233.368923,92.6688428 237.599986,87.5314564 C239.783084,84.9382995 241.744843,82.0818662 243.424687,78.9994344 C245.097541,75.9170026 246.427903,72.5736242 247.236371,69.0811335 C247.343546,68.6407861 247.44606,68.2167478 247.536926,67.7600913 L247.767584,66.2759574 C247.898057,65.3253662 248.051829,64.1324675 248.077458,63.5896053 L248.140365,62.5621281 L248.172983,62.0495544 L248.182303,61.7909377 L248.189292,61.2504054 L248.186962,61.082654 C248.161334,60.1856501 248.165993,59.2886461 248.091437,58.393972 C247.830491,54.8082861 247.026682,51.2622081 245.777866,47.9211596 C243.298873,41.211104 238.932677,35.4353304 233.723065,31.2019377 C228.490153,26.9452462 222.51401,24.1913276 216.654361,22.4136288 C210.771413,20.6312703 204.990979,19.6899986 199.292092,19.2030536 C197.875525,19.0818998 196.428669,19.0026839 194.972494,18.9374472 L192.915209,18.8885198 L190.739101,18.8861899 C187.884997,18.9257978 185.019245,19.1284974 182.141842,19.5152576 C176.396357,20.2980974 170.548357,21.7752416 164.812192,24.359079 C159.101655,26.9335968 153.493633,30.6777146 148.889789,35.7778229 C144.278956,40.8453128 140.749187,47.2454942 138.957509,54.2095068 C138.729181,55.0902016 138.507842,55.9056597 138.34242,56.9401266 C138.167679,57.8837282 137.985949,59.076627 137.899743,59.6171592 L137.734322,60.6423066 L137.694714,60.8985935 L137.673745,61.0267369 C137.659765,61.7280309 137.664425,61.3226317 137.657436,61.5253313 L137.613168,62.2359448 C137.56191,63.186536 137.478035,64.1324675 137.496674,65.1040276 C137.457066,68.9669693 137.925372,72.9906728 139.004106,76.8862328 C140.043233,80.7934423 141.67182,84.5468796 143.670857,87.9508349 C145.644266,91.3827488 148.053362,94.3859646 150.544004,97.1165845 C155.609164,102.489289 161.175248,106.575899 166.750652,109.902968 C165.383012,110.364284 164.020032,110.865209 162.664042,111.410401 C157.160864,113.621457 151.676326,116.403335 146.564568,120.168421 C141.427182,123.88924 136.622969,128.660835 133.048932,134.858317 C131.273563,137.950069 129.836027,141.400621 128.934363,145.119111 C128.682736,146.039413 128.521974,146.990005 128.356553,147.945256 C128.167833,148.895847 128.086287,149.867407 127.995422,150.843627 L127.927855,151.575209 L127.895237,151.941 C127.899896,152.707531 127.892907,152.227576 127.892907,152.432605 L127.885917,152.560749 L127.83932,153.590556 L127.792722,154.622693 C127.778743,154.760156 127.790392,155.042071 127.797382,155.284379 L127.82068,156.025281 L127.881257,157.511744 L127.916206,158.257306 C127.930185,158.492624 127.958143,158.706973 127.979112,158.930642 C128.072308,159.822986 128.158513,160.713 128.272677,161.603014 L128.729334,164.261408 C128.897085,165.146763 129.134733,166.020468 129.349082,166.894173 C130.281034,170.382004 131.667313,173.758001 133.468311,176.873051 C137.042347,183.135769 142.349815,188.19161 148.218783,191.656142 C154.090082,195.176591 160.450656,197.15 166.524654,198.363868 C172.63127,199.575405 178.504899,200.07866 184.234075,200.418822 C187.104488,200.546966 189.944612,200.675109 192.789396,200.700738 C194.278189,200.672779 195.522345,200.710057 197.022788,200.64948 C198.478964,200.628511 199.888541,200.537646 201.319088,200.481729 C207.017975,200.111278 212.807728,199.49153 218.709315,198.142529 C221.661274,197.480843 224.631871,196.625777 227.611788,195.549372 C230.582386,194.454328 233.518035,193.068049 236.374469,191.381216 C242.087335,188.033178 247.434411,183.282552 251.425496,177.292429 C255.423571,171.316286 258.023717,164.261408 259.195647,157.066737 L259.556779,154.364076 L259.598717,154.023914 L259.619685,153.853832 C259.629005,153.853832 259.626675,153.229424 259.633665,153.432124 L259.691912,152.91722 L259.750159,152.402317 C259.761808,152.34174 259.766468,152.171659 259.771128,152.027206 L259.785107,151.586859 L259.806076,150.703834 L259.813066,149.881386 L259.799086,148.348325 Z M166.238079,67.2661566 C165.485527,65.9893822 164.830831,64.5984436 164.364855,62.9931559 C164.222732,62.601736 164.162155,62.173038 164.054981,61.7536596 L163.978095,61.4367958 C163.971105,61.5532899 163.968775,61.0616851 163.954796,61.6791034 L163.943146,61.5486301 L163.912858,61.2900134 L163.801024,60.2602062 C163.717148,59.4284389 163.67987,59.2560278 163.595994,58.8319895 C163.500469,58.4941569 163.49115,57.9536246 163.423583,57.4736693 C163.069441,53.5641299 163.209234,49.3819946 164.26467,45.0507469 C165.315446,40.7451279 167.3704,36.3160252 170.615924,32.5625879 C173.838148,28.8044908 178.239293,25.8129243 183.194948,24.2006471 C185.666951,23.3805292 188.264768,22.8865945 190.890543,22.7048639 C191.53126,22.6792352 192.241874,22.6303077 192.826674,22.6233181 L194.883958,22.6699157 L196.810769,22.8516463 C197.456146,22.9425117 198.108513,23.0566758 198.756219,23.1638503 C203.926224,24.1517196 208.758396,26.619063 212.525813,30.0533067 C214.149739,31.5234612 215.563977,33.1497178 216.803473,34.8505305 C222.406836,41.8331821 225.852729,51.2622081 225.852729,61.648815 C225.852729,74.467817 220.615158,85.8399633 212.530472,92.936779 L212.292825,93.2303439 C212.292825,93.2303439 208.401924,91.2872237 204.278036,89.2532381 C203.012911,88.6987265 201.743126,88.1675138 200.480331,87.6432907 L198.457995,86.8161832 L197.616908,86.4899999 L197.132293,86.3152589 L196.172382,85.9704366 L194.504188,85.3600079 L192.787066,84.7053115 L189.429708,83.3842693 C187.230301,82.4895952 185.1171,81.5506534 183.118062,80.5581244 C179.133967,78.559087 175.55527,76.4435556 172.731455,74.2022106 C171.2846,73.1164863 170.068402,71.9631955 168.978018,70.8425231 C167.913263,69.6962219 167.018589,68.5312817 166.238079,67.2661566 L166.238079,67.2661566 Z M230.013895,166.968729 C229.252024,170.875939 227.735272,174.955559 225.260939,178.895387 C223.024254,182.425156 219.98376,185.794163 216.28624,188.510803 C209.84412,193.522376 202.043681,196.458025 193.637472,196.458025 C171.522247,196.458025 153.593818,176.167097 153.593818,151.137192 C153.593818,137.199847 159.155242,124.739647 167.899283,116.426633 C169.108491,115.13355 170.371286,113.877744 171.727277,112.710474 C172.878238,113.327892 174.029199,113.926672 175.17783,114.499822 C176.573428,115.189467 177.957377,115.867462 179.352975,116.49187 L181.435889,117.414503 L183.586368,118.334805 L185.133409,118.980182 L186.906448,119.742053 L190.405928,121.289094 C192.735809,122.295602 195.005112,123.353368 197.260436,124.383175 C201.745456,126.477737 206.081363,128.639866 210.04682,131.046633 C214.023926,133.425441 217.586313,136.093154 220.552251,138.807465 C223.49722,141.545074 225.752544,144.35258 227.150472,147.003984 C227.863415,148.339005 228.737121,149.890706 229.380168,151.892073 C230.023215,153.89111 230.277172,155.496398 230.277172,155.496398 C230.820034,159.249835 230.775766,163.04754 230.013895,166.968729 L230.013895,166.968729 Z" id="Fill-26" fill="#000000"></path>
            <path d="M90.3240511,192.936877 C87.9359237,189.528262 86.4517899,184.190506 86.4517899,179.945464 C86.4517899,173.953012 86.4517899,47.7503793 86.44946,20.1622654 C86.44946,17.3594192 85.8017532,16.1898193 85.1703556,16.5905587 C84.8441724,16.3855292 84.4783812,16.6255069 84.1708369,17.3291308 C77.0740212,33.5870363 58.726213,48.7265992 47.5148284,53.0578469 C45.9398293,53.6682756 45.9142006,55.3271504 48.1602053,55.3271504 C48.2231121,55.3271504 48.2930085,55.3248205 48.3582451,55.3224907 C48.3675647,55.3038516 48.3838738,55.2875425 48.3931933,55.2689034 C48.5819137,55.3061815 48.7939328,55.3271504 49.0362403,55.3271504 C51.2566164,55.3271504 55.6321318,54.4138373 55.6321318,54.4138373 L55.6321318,179.945464 C55.6321318,184.479411 53.0785828,190.266834 49.6583184,193.610213 C47.9575057,195.271417 44.3531807,198.766238 47.2096141,198.766238 L47.2212635,198.766238 L48.2487408,198.766238 L92.5747156,198.766238 C95.8551872,198.766238 91.7569276,194.982512 90.3240511,192.936877" id="Fill-27" fill="#000000"></path>
        </g>
    </g>
</svg>