<?xml version="1.0" encoding="utf-8"?>
<!-- Back up file. Use components/logo.js -->
<svg version="1.1" id="Layer_1" xmlns="http://www.w3.org/2000/svg" xmlns:xlink="http://www.w3.org/1999/xlink" x="0px" y="0px"
	 viewBox="0 0 250 32" style="enable-background:new 0 0 250 32;" xml:space="preserve">
<g>
	<g>
		<polygon points="14.4631,20.3946 17.0984,17.646 24.1584,27.3975 30.1773,27.3975 20.4815,14.2095 29.7545,4.4908 23.703,4.4908
			14.4631,14.5045 14.4631,4.4908 9.4532,4.4908 9.4532,27.3975 14.4631,27.3975 		"/>
		<rect x="34.9038" y="4.4908" width="5.0902" height="22.9067"/>
		<polygon points="52.0272,27.3975 57.0471,27.3975 57.0471,9.1376 63.9902,9.1376 63.9902,4.4908 45.084,4.4908 45.084,9.1376
			52.0272,9.1376 		"/>
		<path d="M78.9201,28.0186c4.3986,0,7.0054-1.5658,9.352-4.078l-3.1935-3.2293c-1.7926,1.6312-3.3889,2.6751-5.9953,2.6751
			c-3.9107,0-6.615-3.262-6.615-7.1767v-0.0653c0-3.9147,2.7692-7.1118,6.615-7.1118c2.2804,0,4.0726,0.979,5.8321,2.5771
			l3.1935-3.6859c-2.1176-2.0879-4.6923-3.5235-8.9938-3.5235c-7.0054,0-11.8935,5.3176-11.8935,11.8093v0.0654
			C67.2215,22.8317,72.2076,28.0186,78.9201,28.0186z"/>
		<polygon points="98.6014,18.4603 107.8559,18.4603 107.8559,27.6272 112.8742,27.6272 112.8742,4.7919 107.8559,4.7919
			107.8559,13.8285 98.6014,13.8285 98.6014,4.7919 93.5835,4.7919 93.5835,27.6272 98.6014,27.6272 		"/>
		<polygon points="137.0206,23.1579 124.6379,23.1579 124.6379,18.3627 135.3912,18.3627 135.3912,13.8934 124.6379,13.8934
			124.6379,9.2612 136.8579,9.2612 136.8579,4.7919 119.6527,4.7919 119.6527,27.6272 137.0206,27.6272 		"/>
		<polygon points="147.7418,13.1104 158.788,27.6272 163.0565,27.6272 163.0565,4.7919 158.1035,4.7919 158.1035,18.852
			147.4154,4.7919 142.7884,4.7919 142.7884,27.6272 147.7418,27.6272 		"/>
	</g>
	<path d="M172.3793,0H0v32h172.3793h0.2766H250V0h-77.3441H172.3793z M172.3674,31.7112H0.2889V0.2897h172.0785V31.7112z
		 M229.1018,19.3759c1.3802-0.0075,2.4613,1.3089,2.4512,2.884c-0.0088,1.4705-0.7402,2.4557-1.7185,2.5943
		c-0.0039,0.6491,0.4513,1.2815,1.123,1.765c0.0283,0.0155,0.0578,0.0331,0.0918,0.0557c0.4503,0.2994,1.2143,0.4424,1.5098,0.4901
		c0.2973,0.0397,0.6162,0.057,0.8839,0.0468c0.2673-0.0102,0.5364-0.0292,0.8752-0.1197c0.3392-0.0905,0.9496-0.39,1.3179-0.6995
		c0.3123-0.2628,0.6788-0.6478,0.8906-0.8933c0.6889-1.0342,0.9285-2.2022,0.9285-3.2585c0-3.3812-2.5094-6.0109-5.4091-7.4562
		c2.0286-1.4461,5.4135-4.1664,5.7836-4.732c-2.0316,0.642-4.6068-0.9614-7.1417-0.9614c-1.0556,0-1.9183,0.276-2.3687,0.8439
		c-0.1253,0.1581-0.2691,0.0989-0.2563-0.113c0.1976-3.3459,1.9324-5.1321,4.5313-5.1321c1.9135,0,3.8882,1.2082,5.6305,1.2082
		c0.7119,0,1.5098-0.1497,2.0316-0.8744c0.0746-0.1038,0.2038-0.0733,0.1994,0.0596c-0.1346,4.124-2.3197,5.8293-4.5574,7.699
		c2.9116,1.4926,5.2048,4.0052,5.2048,7.4487c0,3.4029-2.8079,6.3955-6.9908,7.2738c0.0044-0.0022,0.0093-0.0049,0.0133-0.007
		c-0.2003,0.0406-0.4019,0.0667-0.603,0.0728c-0.6299,0.034-1.2536-0.0031-1.8442-0.1431
		c-0.1421-0.0344-0.2819-0.0742-0.4191-0.1179c-2.3572-0.5043-4.6897-2.0167-4.6905-4.838
		C226.5691,20.5766,227.7229,19.379,229.1018,19.3759z M208.0781,21.7711l0.0057-0.1299l0.0004-0.0163
		c0-0.026,0.0013,0.0344,0.0004-0.0623l0.0044-0.0459l0.0083-0.0923c0.0119-0.1233,0.0217-0.246,0.0454-0.3656
		c0.0217-0.1205,0.0415-0.2407,0.0728-0.3568c0.1133-0.4685,0.2946-0.9039,0.5183-1.2939c0.4503-0.782,1.0555-1.3839,1.7035-1.8533
		c0.644-0.4747,1.3352-0.8258,2.0285-1.1044c0.1707-0.0689,0.3423-0.1325,0.5143-0.1904c-0.7022-0.4199-1.4036-0.9353-2.0418-1.6131
		c-0.3136-0.3444-0.6171-0.7233-0.8658-1.1561c-0.2515-0.4292-0.457-0.9031-0.5884-1.3958
		c-0.1354-0.4915-0.1941-0.9989-0.1897-1.486c-0.0022-0.1228,0.0083-0.242,0.015-0.3621l0.0052-0.0897
		c0.0009-0.0252,0.0005,0.0256,0.0022-0.0627l0.0022-0.0163l0.0057-0.0323l0.0208-0.1294c0.0105-0.068,0.0335-0.2186,0.056-0.3378
		c0.0203-0.1303,0.0481-0.2332,0.0768-0.3445c0.2258-0.8783,0.6709-1.6855,1.2518-2.3249c0.5805-0.6434,1.2867-1.1159,2.0061-1.4404
		c0.7229-0.3259,1.46-0.5123,2.1834-0.6112c0.363-0.0486,0.7238-0.0742,1.0833-0.0791h0.2744l0.2589,0.0062
		c0.1839,0.0088,0.3661,0.0181,0.5448,0.0336c0.7185,0.0614,1.4463,0.1802,2.1878,0.4054c0.738,0.2239,1.4913,0.5714,2.1508,1.1083
		c0.6564,0.5339,1.2059,1.2625,1.5187,2.109c0.157,0.4213,0.2585,0.869,0.2916,1.3208c0.0097,0.113,0.0093,0.2261,0.0119,0.3392
		l0.0004,0.0212l-0.0009,0.0684l-0.0009,0.0327l-0.004,0.0645l-0.0088,0.1298c-0.0031,0.0684-0.0225,0.2191-0.0388,0.3387
		l-0.0291,0.1872c-0.011,0.0578-0.0242,0.1113-0.0379,0.1665c-0.101,0.4408-0.2686,0.8624-0.4799,1.2515
		c-0.2113,0.389-0.4587,0.7489-0.7339,1.0761c-0.5333,0.6483-1.2544,1.0872-1.9739,1.3795
		c0.2761,0.1683,0.5514,0.3427,0.8257,0.5295c0.6572,0.454,1.314,0.9591,1.9276,1.5871c0.3052,0.3148,0.6016,0.6575,0.8738,1.0404
		c0.2708,0.3833,0.5183,0.8055,0.7194,1.266c0.1981,0.4606,0.3679,0.9591,0.4009,1.4815c0.0119,0.1294,0.0194,0.2583,0.0238,0.3877
		l0.0018,0.1934l-0.0009,0.1038l-0.0031,0.1113l-0.0018,0.0557c-0.0004,0.0181-0.0009,0.0397-0.0022,0.0472l-0.0075,0.0649
		l-0.0075,0.0654c-0.0009-0.026-0.0009,0.0525-0.0017,0.053l-0.0027,0.0217l-0.0049,0.0428l-0.0459,0.3409
		c-0.1478,0.9074-0.4751,1.7973-0.9792,2.551c-0.5024,0.756-1.1764,1.3552-1.8962,1.7774c-0.36,0.2128-0.7301,0.3877-1.1041,0.5255
		c-0.3758,0.136-0.7499,0.2437-1.1217,0.3276c-0.7437,0.1696-1.4728,0.2482-2.1909,0.2945
		c-0.1804,0.0075-0.3586,0.019-0.5421,0.0212c-0.1888,0.0079-0.3458,0.0031-0.5333,0.0066
		c-0.3582-0.0031-0.7164-0.0194-1.078-0.0353c-0.7221-0.0428-1.4622-0.1065-2.2314-0.2592
		c-0.7653-0.1533-1.5663-0.4023-2.3065-0.8461c-0.7397-0.4372-1.4084-1.0748-1.8588-1.8652
		c-0.2267-0.3926-0.4009-0.8182-0.5187-1.2585c-0.0269-0.1104-0.0569-0.2203-0.0781-0.3321l-0.0573-0.3352
		c-0.0146-0.1121-0.0256-0.2247-0.037-0.3374c-0.0027-0.0283-0.0066-0.0552-0.0084-0.0847l-0.0044-0.0941l-0.0071-0.1877
		l-0.0035-0.0936c-0.0004-0.0304-0.0022-0.0658-0.0004-0.0834L208.0781,21.7711z M189.6352,21.7711l0.0057-0.1299l0.0009-0.0163
		c0-0.026,0.0014,0.0344,0.0004-0.0623l0.0045-0.0459l0.0084-0.0923c0.0114-0.1233,0.0216-0.246,0.0454-0.3656
		c0.0207-0.1205,0.041-0.2407,0.0728-0.3568c0.1138-0.4685,0.2947-0.9039,0.5183-1.2939c0.4503-0.782,1.0555-1.3839,1.703-1.8533
		c0.6444-0.4747,1.3352-0.8258,2.0286-1.1044c0.1711-0.0689,0.3427-0.1325,0.5148-0.1904
		c-0.7022-0.4199-1.4036-0.9353-2.0418-1.6131c-0.3137-0.3444-0.6175-0.7233-0.8663-1.1561
		c-0.2519-0.4292-0.4565-0.9031-0.588-1.3958c-0.1354-0.4915-0.1945-0.9989-0.1897-1.486c-0.0027-0.1228,0.0084-0.242,0.0146-0.3621
		l0.0058-0.0897c0.0009-0.0252,0.0004,0.0256,0.0022-0.0627l0.0018-0.0163l0.0057-0.0323l0.0207-0.1294
		c0.0106-0.068,0.0335-0.2186,0.056-0.3378c0.0207-0.1303,0.0485-0.2332,0.0772-0.3445c0.2258-0.8783,0.6705-1.6855,1.2518-2.3249
		c0.5796-0.6434,1.2867-1.1159,2.0065-1.4404c0.7221-0.3259,1.4592-0.5123,2.183-0.6112c0.363-0.0486,0.7238-0.0742,1.0838-0.0791
		h0.2739l0.2589,0.0062c0.1839,0.0088,0.3661,0.0181,0.5443,0.0336c0.7185,0.0614,1.4468,0.1802,2.1878,0.4054
		c0.7384,0.2239,1.4913,0.5714,2.1508,1.1083c0.6568,0.5339,1.2064,1.2625,1.5191,2.109c0.157,0.4213,0.2585,0.869,0.2916,1.3208
		c0.0093,0.113,0.0088,0.2261,0.0119,0.3392l0.0004,0.0212l-0.0009,0.0684l-0.0014,0.0327l-0.004,0.0645l-0.0084,0.1298
		c-0.0031,0.0684-0.0225,0.2191-0.0388,0.3387l-0.0291,0.1872c-0.0115,0.0578-0.0243,0.1113-0.038,0.1665
		c-0.1015,0.4408-0.269,0.8624-0.4795,1.2515c-0.2122,0.389-0.4592,0.7489-0.734,1.0761c-0.5333,0.6483-1.2549,1.0872-1.9743,1.3795
		c0.2761,0.1683,0.5514,0.3427,0.8253,0.5295c0.6572,0.454,1.3149,0.9591,1.9276,1.5871c0.3056,0.3148,0.602,0.6575,0.8747,1.0404
		c0.2704,0.3833,0.5179,0.8055,0.719,1.266c0.198,0.4606,0.3679,0.9591,0.401,1.4815c0.0119,0.1294,0.0198,0.2583,0.0233,0.3877
		l0.0018,0.1934l-0.0009,0.1038l-0.0027,0.1113l-0.0018,0.0557c0,0.0181-0.0009,0.0397-0.0027,0.0472l-0.007,0.0649l-0.008,0.0654
		c-0.0004-0.026-0.0004,0.0525-0.0013,0.053l-0.0027,0.0217l-0.0053,0.0428l-0.0459,0.3409
		c-0.1473,0.9074-0.4751,1.7973-0.9788,2.551c-0.5029,0.756-1.1764,1.3552-1.8967,1.7774c-0.36,0.2128-0.7296,0.3877-1.1041,0.5255
		c-0.3753,0.136-0.7494,0.2437-1.1217,0.3276c-0.7433,0.1696-1.4728,0.2482-2.1913,0.2945c-0.18,0.0075-0.3577,0.019-0.5412,0.0212
		c-0.1892,0.0079-0.3458,0.0031-0.5333,0.0066c-0.3586-0.0031-0.7163-0.0194-1.078-0.0353
		c-0.722-0.0428-1.4622-0.1065-2.2314-0.2592c-0.7653-0.1533-1.5668-0.4023-2.3065-0.8461
		c-0.7388-0.4372-1.4084-1.0748-1.8587-1.8652c-0.2267-0.3926-0.4018-0.8182-0.5187-1.2585
		c-0.0273-0.1104-0.0569-0.2203-0.0781-0.3321l-0.0582-0.3352c-0.0136-0.1121-0.0247-0.2247-0.0366-0.3374
		c-0.0027-0.0283-0.0062-0.0552-0.008-0.0847l-0.0044-0.0941l-0.0075-0.1877l-0.0031-0.0936
		c-0.0009-0.0304-0.0022-0.0658-0.0004-0.0834L189.6352,21.7711z M182.0141,9.5855c-0.0309,0-0.0573-0.0027-0.0812-0.007
		c-0.0014,0.0022-0.0031,0.0044-0.0049,0.0066c-0.0079,0.0004-0.0172,0.0004-0.0247,0.0004c-0.2827,0-0.2792-0.2093-0.0812-0.2861
		c1.4128-0.5462,3.7245-2.4561,4.6187-4.5068c0.0388-0.0888,0.0851-0.1192,0.1262-0.0936c0.0794-0.0503,0.161,0.0972,0.161,0.4509
		c0.0004,3.4801,0.0004,19.4002,0.0004,20.1558c0,0.5352,0.187,1.2091,0.4879,1.6383c0.1804,0.2583,0.697,0.7357,0.2836,0.7357
		h-5.5851h-0.1297h-0.0014c-0.3599,0,0.0939-0.4407,0.3083-0.6504c0.431-0.4217,0.753-1.1517,0.753-1.7235V9.4703
		C182.8451,9.4703,182.2938,9.5855,182.0141,9.5855z"/>
	<path d="M213.7341,11.7563c0.3564,0.2831,0.8067,0.5498,1.3091,0.8019c0.2515,0.125,0.5183,0.2437,0.7953,0.3564l0.4225,0.1669
		l0.217,0.0826l0.2095,0.0768l0.1217,0.0437l0.0604,0.0217l0.1068,0.0415l0.2545,0.1042c0.1588,0.0662,0.3185,0.1333,0.4782,0.2031
		c0.5196,0.2565,1.0101,0.5016,1.0101,0.5016l0.0296-0.0367c1.0189-0.8955,1.6792-2.3303,1.6792-3.9473
		c0-1.3102-0.4345-2.4994-1.1402-3.3803c-0.1566-0.2146-0.3348-0.42-0.5394-0.605c-0.4742-0.4332-1.0838-0.7445-1.7344-0.869
		c-0.082-0.0132-0.1645-0.0283-0.2452-0.0397l-0.2431-0.0225L216.2664,5.25c-0.0736,0.0009-0.1632,0.0071-0.2444,0.0106
		c-0.3304,0.0225-0.6577,0.0852-0.9695,0.1886c-0.6241,0.2036-1.179,0.5807-1.5848,1.055c-0.4084,0.4729-0.6673,1.032-0.8001,1.5751
		c-0.1333,0.5462-0.1504,1.0739-0.1059,1.5672c0.0083,0.0605,0.0097,0.1285,0.022,0.1713c0.0097,0.0534,0.015,0.0751,0.0251,0.1802
		l0.0141,0.1298l0.0035,0.0327l0.0018,0.0163c0.0022-0.0777,0.0022-0.0159,0.0031-0.0304l0.0097,0.0397
		c0.0136,0.053,0.0212,0.1073,0.0388,0.1563c0.0586,0.2027,0.1416,0.3785,0.2364,0.5392c0.0984,0.1594,0.2113,0.3064,0.3454,0.4508
		C213.3989,11.4741,213.5524,11.6194,213.7341,11.7563z"/>
	<g>
		<path d="M195.2919,11.7563c0.356,0.2831,0.8068,0.5498,1.3087,0.8019c0.2519,0.125,0.5183,0.2437,0.7953,0.3564l0.423,0.1669
			l0.2166,0.0826l0.2095,0.0768l0.1213,0.0437l0.0609,0.0217l0.1063,0.0415l0.2549,0.1042
			c0.1592,0.0662,0.3185,0.1333,0.4786,0.2031c0.5191,0.2565,1.0097,0.5016,1.0097,0.5016l0.03-0.0367
			c1.0189-0.8955,1.6788-2.3303,1.6788-3.9473c0-1.3102-0.4345-2.4994-1.1402-3.3803c-0.1566-0.2146-0.3343-0.42-0.539-0.605
			c-0.4746-0.4332-1.0838-0.7445-1.7348-0.869c-0.0816-0.0132-0.1645-0.0283-0.2452-0.0397l-0.2426-0.0225L197.8237,5.25
			c-0.0732,0.0009-0.1628,0.0071-0.2439,0.0106c-0.3308,0.0225-0.6581,0.0852-0.97,0.1886c-0.6237,0.2036-1.179,0.5807-1.5844,1.055
			c-0.4089,0.4729-0.6678,1.032-0.8001,1.5751c-0.1337,0.5462-0.1508,1.0739-0.1063,1.5672
			c0.0083,0.0605,0.0097,0.1285,0.022,0.1713c0.0101,0.0534,0.015,0.0751,0.0255,0.1802l0.0137,0.1298l0.0035,0.0327l0.0022,0.0163
			c0.0017-0.0777,0.0017-0.0159,0.0031-0.0304l0.0092,0.0397c0.0141,0.053,0.0216,0.1073,0.0388,0.1563
			c0.0591,0.2027,0.1416,0.3785,0.2364,0.5392c0.0984,0.1594,0.2113,0.3064,0.3454,0.4508
			C194.9567,11.4741,195.1097,11.6194,195.2919,11.7563z"/>
		<path d="M197.9259,27.1785c1.0595,0,2.0423-0.3705,2.8539-1.0024c0.4658-0.3426,0.8495-0.7679,1.131-1.213
			c0.3118-0.4972,0.5028-1.0112,0.5989-1.5045c0.0957-0.4946,0.101-0.9737,0.0331-1.4471c0,0-0.0322-0.2023-0.1133-0.4548
			c-0.0807-0.2521-0.1905-0.4482-0.281-0.6165c-0.1756-0.3343-0.4601-0.6884-0.831-1.0337c-0.374-0.3427-0.8226-0.6792-1.3233-0.979
			c-0.5002-0.3038-1.0468-0.5767-1.6118-0.8403c-0.2836-0.1302-0.5704-0.2636-0.8637-0.3903l-0.4411-0.1956l-0.2232-0.0959
			l-0.195-0.0817l-0.2708-0.1161l-0.2624-0.1162c-0.1755-0.0786-0.3506-0.1642-0.5258-0.2513
			c-0.1451-0.0724-0.2902-0.1479-0.4353-0.2257c-0.1703,0.1471-0.3295,0.3056-0.4821,0.4685
			c-1.1019,1.0488-1.8023,2.6208-1.8023,4.3788C192.8807,24.619,195.1395,27.1785,197.9259,27.1785z"/>
	</g>
	<path d="M216.3685,27.1785c1.0595,0,2.0423-0.3705,2.8539-1.0024c0.4653-0.3426,0.8491-0.7679,1.1309-1.213
		c0.3118-0.4972,0.5029-1.0112,0.599-1.5045c0.0957-0.4946,0.101-0.9737,0.0327-1.4471c0,0-0.0314-0.2023-0.1125-0.4548
		c-0.0812-0.2521-0.1914-0.4482-0.2814-0.6165c-0.176-0.3343-0.4605-0.6884-0.831-1.0337c-0.374-0.3427-0.8226-0.6792-1.3237-0.979
		c-0.4998-0.3038-1.0467-0.5767-1.6113-0.8403c-0.284-0.1302-0.5699-0.2636-0.8637-0.3903l-0.4411-0.1956l-0.2236-0.0959
		l-0.1945-0.0817l-0.2708-0.1161l-0.2625-0.1162c-0.176-0.0786-0.3502-0.1642-0.5262-0.2513
		c-0.1452-0.0724-0.2898-0.1479-0.435-0.2257c-0.1707,0.1471-0.3295,0.3056-0.4821,0.4685
		c-1.1018,1.0488-1.8027,2.6208-1.8027,4.3788C211.3229,24.619,213.5822,27.1785,216.3685,27.1785z"/>
</g>
</svg>
