<svg xmlns="http://www.w3.org/2000/svg" width="12" height="12" viewBox="0 0 90 90">
  <path d="M48.494 47.947v3.634a11.446 11.446 0 0 1 3.492-2.734c3.43-1.748 7.263-1.628 11.497.358-1.078 4.693-3.233 7.864-6.468 9.512-2.441 1.244-5.282 1.51-8.521.8v6.265a11.446 11.446 0 0 1 3.492-2.733c3.43-1.748 7.263-1.629 11.497.358-1.078 4.693-3.233 7.863-6.468 9.511-2.441 1.244-5.282 1.511-8.521.801v9.895C68.268 81.848 83.769 65.234 83.769 45c0-8.288-2.6-15.97-7.03-22.271L63.044 34.955l.106.049c-1.077 4.693-3.233 7.863-6.468 9.511-1.696.864-3.584 1.257-5.665 1.178l-2.524 2.254zm8.97-14.506l16.24-14.5C66.614 11.132 56.38 6.23 45 6.23 23.588 6.23 6.23 23.588 6.23 45a38.622 38.622 0 0 0 9.638 25.581L31.25 56.847c-1.8-1.792-3.075-4.323-3.827-7.595 4.234-1.987 8.067-2.106 11.497-.358.26.132.515.274.762.424l4.972-4.44v-.255c-4.329 1.522-8.027 1.502-11.095-.061-3.234-1.648-5.39-4.819-6.468-9.512 4.234-1.986 8.067-2.106 11.497-.358 2.805 1.43 4.827 3.845 6.066 7.248v-9.106c-2.564-3.33-3.846-6.545-3.846-9.642 0-3.85 1.846-7.254 5.538-10.212 3.692 3.178 5.539 6.582 5.539 10.212 0 2.95-1.13 6.166-3.391 9.647v4.172a11.437 11.437 0 0 1 3.16-2.365 11.079 11.079 0 0 1 5.81-1.205zm-12.81 17.935l-1.44 1.285c.55.79 1.03 1.67 1.44 2.636v-3.921zm-9.05 8.08l-2.747 2.452a11.1 11.1 0 0 1 6.063 1.187c2.567 1.308 4.479 3.443 5.734 6.404v-10.56c-3.415 1.147-6.432 1.319-9.05.517zm-7.41 6.616l-8.902 7.948a38.62 38.62 0 0 0 25.362 9.748V73.14c-4.186 1.406-7.774 1.347-10.763-.176-2.591-1.32-4.49-3.617-5.697-6.892zM45 90C20.147 90 0 69.853 0 45S20.147 0 45 0s45 20.147 45 45-20.147 45-45 45z" fill-rule="evenodd" clip-rule="evenodd" fill="#8f8f8f"/>
</svg>
