<svg xmlns="http://www.w3.org/2000/svg" width="29" height="40">
  <path d="M16.872 36.777a145.545 145.545 0 0 1-2.092 2.892.829.829 0 0 1-1.325 0c-.106-.14-.303-.406-.578-.781-.457-.625-.966-1.333-1.514-2.111A148.577 148.577 0 0 1 6.77 29.87a100.36 100.36 0 0 1-2.59-4.383C1.507 20.667 0 16.815 0 14.167 0 6.343 6.32 0 14.118 0c7.797 0 14.117 6.343 14.117 14.167 0 2.648-1.507 6.5-4.18 11.32a100.36 100.36 0 0 1-2.59 4.383 148.577 148.577 0 0 1-4.593 6.907zm-2.754-18.444c3.21 0 5.813-2.611 5.813-5.833s-2.603-5.833-5.813-5.833c-3.21 0-5.814 2.611-5.814 5.833s2.603 5.833 5.814 5.833z" fill-rule="nonzero" fill="#807F21"/>
</svg>
