<svg xmlns="http://www.w3.org/2000/svg" viewBox="0 0 24 24">
  <title>Twitter</title>
  <path d="M23.33 2.62a9.644 9.644 0 0 1-3.122 1.187c-.975-1.035-2.173-1.553-3.594-1.553-1.36 0-2.52.48-3.48 1.439-.959.96-1.439 2.12-1.439 3.48 0 .365.041.74.122 1.126-2.01-.101-3.896-.606-5.657-1.515S2.904 4.665 1.675 3.152a4.82 4.82 0 0 0-.67 2.483c0 .842.198 1.624.594 2.345s.929 1.304 1.599 1.751a4.88 4.88 0 0 1-2.223-.624v.06c0 1.188.373 2.232 1.119 3.13a4.84 4.84 0 0 0 2.825 1.698 5.092 5.092 0 0 1-1.295.168 6.24 6.24 0 0 1-.928-.077 4.811 4.811 0 0 0 1.736 2.43 4.796 4.796 0 0 0 2.862.982c-1.786 1.4-3.822 2.101-6.106 2.101-.437 0-.833-.02-1.188-.06 2.284 1.471 4.802 2.207 7.553 2.207 1.747 0 3.386-.276 4.92-.83s2.842-1.294 3.928-2.223a14.879 14.879 0 0 0 2.81-3.206 14.283 14.283 0 0 0 1.759-3.784 13.973 13.973 0 0 0 .563-4.591A10.31 10.31 0 0 0 24 4.569a9.803 9.803 0 0 1-2.833.761c1.066-.64 1.787-1.543 2.163-2.71z"/>
</svg>
