<?xml version="1.0" encoding="utf-8"?>
<svg version="1.1" id="Layer_1" xmlns="http://www.w3.org/2000/svg" xmlns:xlink="http://www.w3.org/1999/xlink" x="0px" y="0px"
	 viewBox="0 0 24 24" style="enable-background:new 0 0 24 24;" xml:space="preserve">
<title>Twitter</title>
<path d="M23.3299,2.6193c-0.9746,0.5787-2.0152,0.9746-3.1218,1.1878c-0.9746-1.0355-2.1726-1.5533-3.5939-1.5533
	c-1.3604,0-2.5203,0.4797-3.4797,1.4391c-0.9594,0.9594-1.4391,2.1193-1.4391,3.4797c0,0.3655,0.0406,0.7411,0.1218,1.1269
	C9.8071,8.198,7.9213,7.6929,6.1599,6.7843S2.9036,4.665,1.6751,3.1523C1.2284,3.9137,1.0051,4.7411,1.0051,5.6346
	c0,0.8426,0.198,1.6243,0.5939,2.3452S2.5279,9.2843,3.1979,9.731C2.4061,9.7005,1.665,9.4924,0.9746,9.1066v0.0609
	c0,1.1879,0.3731,2.231,1.1193,3.1295c0.7462,0.8984,1.6878,1.4644,2.8249,1.698c-0.4264,0.1116-0.8579,0.1675-1.2944,0.1675
	c-0.2842,0-0.5939-0.0254-0.9289-0.0761c0.3147,0.9848,0.8934,1.7944,1.7361,2.429c0.8426,0.6345,1.7969,0.9619,2.8629,0.9822
	c-1.7869,1.401-3.8224,2.1015-6.1066,2.1015c-0.4365,0-0.8325-0.0203-1.1878-0.0609c2.2843,1.4721,4.802,2.2081,7.5533,2.2081
	c1.7462,0,3.3858-0.2766,4.9188-0.8299s2.8426-1.2944,3.9289-2.2234c1.0863-0.9289,2.0228-1.9975,2.8097-3.2056
	c0.7868-1.2081,1.3731-2.4696,1.7589-3.7842c0.3858-1.3147,0.5787-2.632,0.5787-3.9518c0-0.2842-0.0051-0.4975-0.0152-0.6396
	C22.4975,6.4112,23.3198,5.5635,24,4.5685c-0.9442,0.4061-1.8883,0.6599-2.8325,0.7615
	C22.2335,4.6904,22.9543,3.7868,23.3299,2.6193z"/>
</svg>
