<svg xmlns="http://www.w3.org/2000/svg" viewBox="0 0 24 24">
  <title>Instagram</title>
  <path d="M19.9 1H3.8c-.8 0-1.4.3-2 .9S1 3.1 1 3.9v16.3c0 .8.3 1.4.9 2 .5.5 1.2.8 2 .8h16.2c.8 0 1.4-.3 2-.9.5-.5.9-1.2.9-2V3.9c0-.8-.3-1.4-.9-2S20.7 1 19.9 1zm-11 7.9c.9-.9 1.9-1.2 3.1-1.2s2.3.4 3.1 1.2c.9.9 1.3 1.9 1.3 3.1s-.5 2.1-1.4 3c-.9.9-1.9 1.2-3.1 1.2s-2.1-.4-3-1.2c-.9-.9-1.3-2-1.3-3S8 9.8 8.9 8.9zm11.4 10.6c0 .2-.1.4-.2.7-.1.1-.4.2-.7.2H4.3c-.2 0-.4-.1-.7-.2-.2-.1-.2-.4-.2-.7v-9.2h2c-.2.7-.4 1.3-.4 1.8 0 1.9.7 3.4 2 4.7s3 2 4.8 2c1.2 0 2.4-.3 3.4-.9 1-.5 1.9-1.4 2.5-2.4.7-1 .9-2.1.9-3.3 0-.7-.1-1.3-.3-1.9h2c-.1.2 0 9.2 0 9.2zm0-12.7c0 .3-.1.6-.3.7-.2.2-.4.3-.7.3h-2.5c-.3 0-.5-.1-.7-.3-.2-.2-.3-.5-.3-.7V4.4c0-.2.1-.5.3-.7s.4-.3.7-.3h2.5c.3 0 .5.1.7.3.2.2.3.4.3.7v2.4z"/>
</svg>
