<svg xmlns="http://www.w3.org/2000/svg" width="432" height="774" viewBox="0 0 432 774">
    <g fill="none" fill-rule="evenodd" opacity=".5" style="mix-blend-mode:multiply">
        <path stroke="#959620" d="M1.04 773.265H464.26V1.243H1.04z"/>
        <path stroke="#959620" d="M1.04 434.455H464.26v-94.399H1.04z"/>
        <path fill="#000" d="M393.478 678.841c0 13.187-2.994 27.768-11.606 40.68-2.645 3.067-7.224 7.873-11.128 11.15-4.605 3.867-12.233 7.606-16.47 8.736-4.239 1.13-7.6 1.365-10.942 1.49-3.343.128-7.335-.085-11.044-.584-3.698-.594-13.242-2.38-18.878-6.116a15.425 15.425 0 0 0-1.137-.693 47.834 47.834 0 0 1-4.304-3.526c2.253 4.791 6.285 9.279 11.393 13.076.642.176 1.27.382 1.919.54 7.382 1.753 15.179 2.208 23.049 1.786 2.517-.073 5.038-.403 7.536-.906-.055.03-.11.059-.165.085 13.308-2.793 25.497-7.302 36.28-13.162a75.45 75.45 0 0 0 1.626-1.823c8.608-12.908 11.605-27.493 11.602-40.68.003-22.91-9.247-43.046-23.486-59.564 9.767 14.416 15.755 31.07 15.755 49.511M428.488 463.9c-6.523 9.049-16.492 10.92-25.39 10.92-21.772 0-46.462-15.084-70.37-15.084-32.486 0-54.17 22.294-56.64 64.066-.154 2.65 1.644 3.387 3.207 1.413 1.64-2.066 3.757-3.78 6.2-5.228 6.059-32.802 26.294-50.201 54.964-50.201 23.908 0 48.597 15.084 70.374 15.084 6.244 0 12.992-.98 18.73-4.66a132.343 132.343 0 0 0 1.417-15.56c.055-1.663-1.56-2.045-2.492-.75M386.286 538.283c-15.49 13.524-42.283 34.563-60.415 47.474a158.748 158.748 0 0 1 12.247 6.803c21.956-19.19 29.544-26.77 35.906-31.797 8.887-7.422 17.707-14.636 25.662-22.679-1.989.29-1.523-11.4-1.523-11.4s-7.448 7.797-11.877 11.599M289.073 643.074c-17.23.037-31.654 14.989-31.65 38.647.004 15.895 5.97 28.428 15.187 38.016-4.675-7.856-7.452-17.128-7.452-27.963-.004-23.658 14.42-38.61 31.646-38.646 7.008-.04 13.374 2.682 18.485 7.202-5.32-10.317-14.956-17.318-26.216-17.256M51.246 569.606c3.107 5.405 6.905 10.134 10.823 14.434 6.473 6.865 13.47 12.38 20.566 17.021-3.827-3.06-7.573-6.431-11.15-10.222-3.923-4.304-7.717-9.033-10.825-14.434-3.148-5.36-5.712-11.275-7.352-17.425-1.696-6.134-2.433-12.47-2.37-18.554-.034-1.53.102-3.02.18-4.52l.072-1.116c.008-.32.004.32.026-.785l.03-.202.066-.404.26-1.618c.136-.847.418-2.726.697-4.212.26-1.629.606-2.913.969-4.3 2.821-10.967 8.376-21.046 15.641-29.026 7.247-8.032 16.078-13.928 25.075-17.983 4.869-2.194 9.79-3.849 14.706-5.13a43.945 43.945 0 0 1 4.828-1.922c3.897-1.288 7.984-2.07 12.12-2.355 1.008-.04 2.127-.114 3.052-.125l3.236.07 3.035.29c1.016.143 2.043.319 3.063.488.1.022.195.047.294.07l3.163.073c2.293.106 4.568.23 6.802.422 8.975.766 18.074 2.249 27.342 5.056 6.359 1.93 12.795 4.608 18.885 8.273-.473-.41-.935-.84-1.42-1.232-8.24-6.707-17.652-11.04-26.88-13.84-9.264-2.81-18.364-4.29-27.342-5.056-2.23-.195-4.505-.316-6.802-.419l-3.24-.084h-3.423c-4.499.066-9.012.385-13.543.994-9.048 1.233-18.258 3.56-27.291 7.628-8.993 4.055-17.825 9.947-25.075 17.98-7.26 7.983-12.82 18.055-15.641 29.03-.36 1.386-.708 2.67-.969 4.292-.275 1.493-.561 3.368-.697 4.223l-.26 1.61-.063.408-.033.198c-.018 1.108-.014.466-.025.79l-.07 1.118c-.08 1.497-.213 2.983-.184 4.513-.062 6.087.675 12.424 2.374 18.559 1.637 6.153 4.201 12.064 7.35 17.424M81.157 606.552c-8.67 3.478-17.3 7.862-25.353 13.792-8.09 5.852-15.656 13.374-21.285 23.13-2.796 4.872-5.06 10.306-6.487 16.159-.389 1.449-.642 2.95-.902 4.45-.298 1.497-.426 3.03-.57 4.565l-.106 1.155-.05.576c.006 1.208-.005.452-.008.767l-.008.206-.073 1.625-.073 1.622c-.019.213-.004.664.007 1.042l.037 1.167.095 2.344.055 1.167c.022.378.066.712.1 1.068.146 1.401.278 2.807.458 4.208l.726 4.187c.26 1.39.635 2.763.973 4.142a65.008 65.008 0 0 0 6.487 15.715c5.57 9.76 13.814 17.645 22.935 23.097-5.287-4.568-9.954-10.046-13.524-16.298a64.885 64.885 0 0 1-6.483-15.711c-.342-1.38-.712-2.752-.976-4.146l-.723-4.187c-.176-1.402-.312-2.807-.463-4.208-.033-.356-.073-.69-.095-1.064l-.059-1.17-.091-2.342-.037-1.17c-.011-.382-.03-.822-.007-1.046l.073-1.618.073-1.622.008-.205c0-.32.014.436.007-.77l.051-.58.103-1.153c.147-1.533.275-3.07.572-4.564.261-1.504.51-3.001.907-4.45 1.42-5.853 3.684-11.287 6.48-16.156 5.631-9.76 13.194-17.277 21.288-23.133 7.998-5.893 16.573-10.252 25.184-13.723 1.318-1.372 3.6-3.544 5.027-4.821-1.354-.727-4.707-2.22-8.024-4.495-1.956.675-4.312 1.67-6.249 2.448"/>
        <path fill="#000" d="M159.685 577.457l-.404.447s5.603 2.792 10.556 5.65c12.303-11.216 20.243-28.787 20.243-48.575 0-16.357-5.427-31.202-14.25-42.198-1.953-2.682-4.18-5.243-6.737-7.555-2.646-2.418-5.647-4.502-8.861-6.241a49.647 49.647 0 0 1 6.182 6.997c8.828 10.996 14.255 25.845 14.255 42.198 0 20.188-8.252 38.1-20.984 49.277M196.655 680.554s-.98-4.609-4.535-11.154c-2.194-4.176-5.75-8.597-10.387-12.912-3.878-3.544-8.432-7.03-13.44-10.255a91.357 91.357 0 0 1 4.025 3.46c4.642 4.311 8.193 8.732 10.391 12.904 1.409 3.046 3.621 6.513 4.924 13.378.859 4.542.789 11.895-.415 18.067-1.196 6.156-3.588 12.577-7.485 18.782A56.48 56.48 0 0 1 165.6 727.97c-10.145 7.888-22.426 12.511-35.667 12.511-10.476 0-20.346-2.905-29.041-8.024 9.554 8.336 21.273 13.627 34.042 14.633.113-.008.212-.004.33-.008 2.293-.03 4.513-.176 6.766-.264 2.847-.183 5.716-.437 8.596-.723 8.916-1.827 17.197-5.735 24.389-11.33a56.485 56.485 0 0 0 14.133-15.146c3.897-6.2 6.285-12.622 7.485-18.779 1.2-6.171 1.266-12.152.411-18.07l-.389-2.216zM227.17 139.625c3.109 5.4 6.906 10.134 10.825 14.43 6.472 6.87 13.47 12.384 20.565 17.025-3.827-3.056-7.57-6.424-11.15-10.226-3.923-4.296-7.716-9.03-10.824-14.43-3.148-5.36-5.713-11.272-7.353-17.425-1.695-6.135-2.433-12.475-2.37-18.555-.033-1.53.102-3.02.18-4.516l.073-1.12c.007-.318.007.32.026-.784l.029-.202.066-.404.257-1.614c.14-.851.425-2.734.7-4.22.261-1.625.606-2.91.97-4.3 2.82-10.967 8.376-21.042 15.64-29.023 7.247-8.031 16.079-13.928 25.075-17.986 4.87-2.194 9.79-3.845 14.71-5.125a43.598 43.598 0 0 1 4.825-1.923c3.896-1.288 7.984-2.07 12.119-2.356 1.009-.036 2.128-.113 3.052-.124l3.237.073 3.034.283c1.016.146 2.047.326 3.064.491.099.022.198.048.293.07l3.163.077c2.293.103 4.568.228 6.803.415 8.974.77 18.074 2.253 27.338 5.06 6.362 1.93 12.798 4.611 18.889 8.273-.474-.41-.936-.84-1.42-1.233-8.237-6.703-17.652-11.04-26.88-13.84-9.265-2.806-18.364-4.289-27.342-5.056-2.231-.194-4.506-.315-6.803-.418l-3.24-.08h-3.423c-4.495.062-9.008.381-13.543.99-9.048 1.233-18.257 3.556-27.29 7.625-8.994 4.058-17.825 9.954-25.075 17.986-7.261 7.98-12.82 18.055-15.642 29.022-.36 1.39-.708 2.675-.968 4.3-.276 1.486-.562 3.369-.697 4.22l-.257 1.614-.066.404-.03.202c-.022 1.104-.018.466-.03.785l-.069 1.119c-.077 1.497-.213 2.987-.18 4.517-.066 6.08.672 12.42 2.37 18.554 1.64 6.153 4.202 12.064 7.35 17.425M257.083 176.569c-8.67 3.482-17.304 7.86-25.354 13.792-8.09 5.856-15.656 13.374-21.284 23.134-2.796 4.869-5.06 10.303-6.483 16.155-.393 1.45-.646 2.95-.907 4.454-.297 1.493-.425 3.027-.568 4.56l-.107 1.157-.051.576c.007 1.207-.004.451-.004.77l-.01.206-.074 1.621-.074 1.622c-.022.22-.003.664.008 1.046l.036 1.167.096 2.34.055 1.171c.022.374.066.708.099 1.064.147 1.402.282 2.807.462 4.208l.723 4.187c.26 1.394.635 2.766.972 4.146a64.896 64.896 0 0 0 6.487 15.711c5.566 9.76 13.81 17.645 22.936 23.097-5.287-4.568-9.958-10.046-13.524-16.298a64.886 64.886 0 0 1-6.484-15.711c-.34-1.38-.712-2.752-.976-4.146l-.722-4.187c-.18-1.401-.312-2.807-.463-4.208-.033-.356-.073-.69-.099-1.064l-.055-1.17-.092-2.341-.036-1.17c-.011-.383-.03-.823-.008-1.043l.074-1.622.07-1.621.01-.206c0-.32.015.437.008-.77l.047-.576.107-1.156c.147-1.534.275-3.068.572-4.561.257-1.504.51-3.005.907-4.454 1.42-5.853 3.683-11.286 6.48-16.155 5.631-9.76 13.193-17.278 21.287-23.138 7.999-5.889 16.574-10.248 25.185-13.715 1.317-1.372 3.6-3.548 5.027-4.825-1.35-.726-4.708-2.22-8.028-4.49-1.952.67-4.311 1.665-6.245 2.443"/>
        <path fill="#000" d="M335.612 147.476l-.407.447s5.606 2.793 10.56 5.65c12.302-11.216 20.242-28.787 20.242-48.575 0-16.353-5.426-31.202-14.254-42.198-1.949-2.682-4.176-5.243-6.737-7.555-2.645-2.418-5.643-4.505-8.857-6.24A49.444 49.444 0 0 1 342.34 56c8.828 10.996 14.255 25.842 14.255 42.199 0 20.19-8.252 38.1-20.984 49.276M372.973 252.792l-.392-2.22s-.976-4.608-4.532-11.153c-2.197-4.176-5.75-8.597-10.39-12.908-3.879-3.552-8.432-7.034-13.44-10.263a94.073 94.073 0 0 1 4.028 3.464c4.638 4.31 8.19 8.732 10.387 12.908 1.413 3.041 3.622 6.509 4.924 13.374.859 4.542.79 11.891-.41 18.066-1.2 6.157-3.589 12.578-7.49 18.782a56.422 56.422 0 0 1-14.133 15.147c-10.141 7.888-22.425 12.511-35.663 12.511-10.476 0-20.35-2.906-29.041-8.024 9.547 8.336 21.27 13.63 34.038 14.629.117-.004.216 0 .33-.004 2.297-.03 4.517-.176 6.77-.264 2.847-.187 5.712-.437 8.593-.723 8.92-1.827 17.197-5.735 24.388-11.327a56.48 56.48 0 0 0 14.134-15.146c3.896-6.204 6.289-12.629 7.485-18.782 1.203-6.175 1.266-12.156.414-18.067M135.045 27.242c-.513-.323-1.09.055-1.574 1.163-11.176 25.603-40.07 49.445-57.726 56.27-2.48.958-2.52 3.574 1.017 3.574.099 0 .209-.008.311-.008.015-.03.037-.058.056-.088.297.059.63.096 1.012.096 3.497 0 10.387-1.439 10.387-1.439v197.685c0 7.143-4.02 16.254-9.407 21.519-2.679 2.616-8.355 8.12-3.856 8.12H85.53c1.706-1.215 3.328-2.558 4.817-4.095 7.617-7.878 9.925-19.226 10.99-29.738.007-.066.043-.11.054-.176V86.395c13.972-9.576 30.73-25.522 35.668-37.549V32.871c0-4.418-1.02-6.26-2.015-5.629"/>
        <path fill="#959620" d="M29.743 357.477h13.785v27.386l25.42-27.386h16.646l-25.507 26.582 26.67 36.071H70.2l-19.42-26.67-7.251 7.518v19.152H29.743zM97.502 420.131h13.784v-62.654H97.502zM145.116 370.186h-19.065v-12.71h51.915v12.71H158.9v49.944h-13.785zM183.068 388.981v-.18c0-17.81 13.425-32.401 32.666-32.401 11.819 0 18.889 3.94 24.704 9.668l-8.769 10.116c-4.832-4.389-9.756-7.07-16.023-7.07-10.56 0-18.17 8.768-18.17 19.508v.18c0 10.743 7.43 19.692 18.17 19.692 7.162 0 11.547-2.862 16.47-7.339l8.77 8.861c-6.443 6.891-13.605 11.188-25.684 11.188-18.44 0-32.134-14.233-32.134-32.223M251.898 357.477h13.785v24.792h25.42v-24.792h13.78v62.653h-13.78V394.98h-25.42v25.151h-13.785zM319.922 357.477h47.258v12.262h-33.565v12.71h29.536v12.262h-29.536v13.157h34.012v12.262h-47.705zM379.889 357.477h12.71l29.356 38.577v-38.577h13.605v62.653h-11.723l-30.343-39.832v39.832h-13.605zM234.124 664.716a76.763 76.763 0 0 0-.294-4.84c-.414-6.52-2.535-12.746-5.008-18.488-2.517-5.757-5.61-11.022-8.99-15.814-3.404-4.777-7.106-9.055-10.93-12.985-7.657-7.84-15.876-14.144-24.091-19.813a235.45 235.45 0 0 0-10.314-6.608c8.993-3.65 18.004-9.133 24.668-17.227a80.805 80.805 0 0 0 9.172-13.432c2.635-4.855 4.734-10.12 6.003-15.62.169-.693.33-1.365.473-2.084l.367-2.337c.202-1.493.444-3.376.485-4.23l.099-1.615.051-.81.018-.4.008-.86-.004-.263c-.04-1.413-.033-2.826-.15-4.23-.411-5.644-1.677-11.232-3.644-16.494-3.904-10.563-10.78-19.666-18.984-26.325-8.24-6.708-17.652-11.044-26.88-13.844-9.264-2.807-18.364-4.293-27.342-5.06a175.44 175.44 0 0 0-6.802-.414l-3.24-.077-3.424-.004c-4.498.059-9.01.378-13.542.987-9.048 1.236-18.258 3.563-27.291 7.628-8.993 4.058-17.825 9.95-25.075 17.99-7.261 7.973-12.82 18.052-15.641 29.022-.36 1.387-.708 2.668-.969 4.3-.275 1.487-.561 3.369-.697 4.216l-.26 1.615-.063.407-.033.198c-.018 1.105-.015.466-.026.785l-.07 1.12c-.076 1.496-.212 2.982-.183 4.516-.062 6.084.675 12.416 2.374 18.551 1.637 6.153 4.201 12.064 7.35 17.428 3.107 5.405 6.905 10.138 10.823 14.435 7.977 8.457 16.742 14.893 25.523 20.132-2.154.727-4.3 1.52-6.436 2.378-8.666 3.485-17.3 7.859-25.354 13.788-8.09 5.86-15.656 13.381-21.284 23.138-2.796 4.869-5.06 10.306-6.483 16.155-.393 1.453-.646 2.946-.907 4.45-.297 1.497-.425 3.031-.568 4.565l-.107 1.156-.051.576c.007 1.207-.004.45-.004.77l-.01.21-.074 1.617-.074 1.622c-.018.22-.003.664.008 1.046l.036 1.167.096 2.344.055 1.167c.022.374.066.708.099 1.064.147 1.405.282 2.81.459 4.208l.726 4.187c.26 1.394.635 2.766.972 4.146a65.043 65.043 0 0 0 6.487 15.711c5.629 9.87 13.987 17.828 23.23 23.284 9.25 5.544 19.262 8.652 28.828 10.567 9.616 1.9 18.866 2.693 27.889 3.233 4.52.202 8.993.4 13.473.444 2.344-.048 4.303.018 6.666-.085 2.294-.033 4.513-.176 6.766-.264 8.975-.58 18.096-1.56 27.386-3.68a116.387 116.387 0 0 0 14.02-4.084 85.16 85.16 0 0 0 13.8-6.56c9-5.276 17.417-12.758 23.702-22.194 6.296-9.408 10.391-20.518 12.237-31.852l.568-4.253.066-.532.033-.271c.015-.004.011-.983.022-.66l.096-.815.092-.815c.018-.088.022-.36.033-.587l.018-.69.033-1.39.01-1.303-.021-2.414zM86.784 537.027c-1.186-2.007-2.217-4.193-2.95-6.729-.224-.612-.316-1.288-.489-1.948l-.12-.503c-.012.184-.015-.59-.034.386l-.025-.206-.044-.404-.176-1.629c-.133-1.31-.191-1.577-.323-2.249-.147-.524-.165-1.383-.272-2.139-.554-6.157-.337-12.739 1.325-19.56 1.654-6.784 4.89-13.759 10.002-19.666 5.074-5.922 12.005-10.63 19.813-13.169 3.893-1.291 7.98-2.073 12.115-2.359 1.01-.04 2.128-.114 3.053-.125l3.236.077 3.034.283c1.017.143 2.044.326 3.064.491 8.142 1.556 15.752 5.438 21.688 10.854 2.554 2.308 4.781 4.872 6.733 7.55 8.824 10.997 14.25 25.842 14.25 42.2 0 20.187-8.247 38.103-20.979 49.279l-.374.459s-6.124-3.06-12.622-6.264a306.914 306.914 0 0 0-5.98-2.539l-3.185-1.295-1.325-.52-.763-.272-1.512-.54-2.627-.965-2.704-1.03-5.284-2.085a145.95 145.95 0 0 1-9.943-4.447c-6.274-3.144-11.91-6.476-16.357-10.009-2.278-1.713-4.194-3.522-5.907-5.294-1.677-1.802-3.09-3.637-4.319-5.633zM187.217 694.04c-1.196 6.156-3.588 12.577-7.485 18.782a56.485 56.485 0 0 1-14.133 15.146c-10.146 7.892-22.43 12.512-35.668 12.512-34.827 0-63.06-31.955-63.06-71.372 0-21.941 8.757-41.567 22.527-54.659 1.905-2.04 3.893-4.017 6.029-5.852 1.812.972 3.625 1.915 5.434 2.818 2.198 1.09 4.377 2.157 6.575 3.133l3.28 1.457 3.387 1.446 2.436 1.02 2.792 1.203 5.511 2.436c3.67 1.578 7.243 3.248 10.795 4.873 7.063 3.291 13.89 6.696 20.136 10.486 6.263 3.75 11.873 7.948 16.544 12.222 4.637 4.311 8.19 8.733 10.39 12.908 1.127 2.102 2.5 4.546 3.512 7.698 1.013 3.152 1.413 5.676 1.413 5.676.854 5.915.785 11.899-.415 18.067zM374.023 560.763c27.966-23.34 55.279-44.631 56.956-96.112.055-1.663-1.556-2.044-2.492-.749-6.523 9.048-16.489 10.916-25.386 10.916-21.776 0-46.466-15.084-70.374-15.084-32.482 0-54.167 22.297-56.636 64.07-.158 2.645 1.64 3.387 3.207 1.413 5.628-7.09 16.412-10.542 29.598-10.542 31.687 0 63.869 20.023 89.266 12.01-4.63 7.062-46.935 41.016-72.292 59.076 36.243 18.037 67.607 50.872 67.607 93.085 0 13.183-2.994 27.764-11.606 40.68-2.645 3.063-7.224 7.866-11.128 11.15-4.605 3.86-12.233 7.602-16.47 8.732-4.239 1.127-7.6 1.365-10.942 1.494-3.343.124-7.335-.092-11.044-.584-3.699-.598-13.242-2.385-18.878-6.12a16.98 16.98 0 0 0-1.137-.697c-8.395-6.036-14.093-13.932-14.038-22.037 12.218-1.728 21.365-14.027 21.479-32.387.12-19.66-13.385-36.1-30.64-36.001-17.231.036-31.654 14.988-31.65 38.65.007 35.224 29.158 54.105 58.624 60.401a82.53 82.53 0 0 0 5.233 1.468c7.382 1.754 15.179 2.212 23.049 1.787 2.517-.078 5.038-.408 7.536-.907-.055.03-.11.055-.165.088 52.281-10.967 87.373-48.33 87.373-90.806 0-42.991-28.663-74.359-65.05-92.994M410.052 234.737a76.546 76.546 0 0 0-.294-4.843c-.415-6.516-2.535-12.743-5.008-18.492-2.517-5.754-5.61-11.022-8.993-15.807-3.402-4.78-7.104-9.055-10.927-12.985-7.657-7.84-15.876-14.148-24.091-19.817a241.204 241.204 0 0 0-10.314-6.608c8.99-3.654 18.004-9.132 24.667-17.223a81.214 81.214 0 0 0 9.173-13.436c2.634-4.854 4.73-10.12 6.003-15.62.168-.693.33-1.36.473-2.08l.363-2.337c.206-1.497.448-3.376.488-4.23l.1-1.619.05-.807.015-.407.011-.851-.003-.264c-.04-1.413-.033-2.826-.15-4.235-.412-5.646-1.678-11.23-3.644-16.492-3.904-10.567-10.78-19.663-18.984-26.33-8.241-6.703-17.652-11.04-26.88-13.84-9.265-2.807-18.368-4.289-27.342-5.056-2.231-.19-4.51-.315-6.803-.418l-3.24-.077-3.427-.004a113.32 113.32 0 0 0-13.539.99c-9.048 1.234-18.257 3.56-27.29 7.629-8.993 4.054-17.825 9.95-25.075 17.982-7.261 7.98-12.82 18.06-15.642 29.027-.36 1.387-.708 2.67-.968 4.3-.275 1.486-.562 3.364-.697 4.216l-.26 1.614-.063.404-.033.201c-.022 1.105-.015.466-.026.786l-.07 1.119c-.08 1.497-.212 2.986-.183 4.516-.062 6.084.675 12.42 2.374 18.555 1.636 6.153 4.2 12.064 7.349 17.425 3.108 5.404 6.902 10.134 10.824 14.434 7.977 8.461 16.742 14.897 25.522 20.136-2.154.727-4.3 1.515-6.435 2.374-8.667 3.482-17.304 7.863-25.354 13.792-8.09 5.86-15.656 13.374-21.284 23.134-2.796 4.869-5.06 10.303-6.48 16.159-.396 1.449-.65 2.946-.91 4.45-.297 1.497-.426 3.027-.569 4.565l-.106 1.152-.052.576c.008 1.207-.003.451-.003.774l-.011.202-.074 1.622-.073 1.625c-.022.216-.004.66.007 1.042l.037 1.167.095 2.34.055 1.175c.023.37.067.708.1 1.06.146 1.405.282 2.807.462 4.209l.719 4.186c.264 1.394.638 2.77.976 4.146a64.982 64.982 0 0 0 6.487 15.715c5.628 9.863 13.987 17.825 23.23 23.28 9.245 5.545 19.262 8.652 28.827 10.564 9.617 1.908 18.867 2.7 27.89 3.236 4.52.202 8.992.404 13.472.444 2.345-.044 4.304.015 6.667-.08 2.293-.034 4.513-.177 6.766-.265 8.974-.583 18.092-1.56 27.386-3.684a115.722 115.722 0 0 0 14.02-4.083 84.876 84.876 0 0 0 13.8-6.564c8.996-5.273 17.417-12.754 23.702-22.188 6.296-9.41 10.39-20.52 12.236-31.851l.569-4.256.066-.536.033-.268c.015 0 .011-.983.022-.664l.092-.81.091-.812c.019-.095.026-.363.033-.59l.022-.694.034-1.39.01-1.296-.021-2.414zM262.71 107.048c-1.185-2.01-2.216-4.2-2.95-6.729-.224-.616-.32-1.291-.488-1.952l-.121-.499c-.011.184-.015-.59-.037.382l-.018-.206-.048-.407-.176-1.622c-.132-1.31-.19-1.581-.323-2.249-.15-.532-.165-1.383-.271-2.139-.558-6.157-.338-12.743 1.324-19.564 1.655-6.78 4.891-13.755 10.002-19.666 5.075-5.918 12.006-10.63 19.81-13.168 3.893-1.292 7.984-2.07 12.119-2.356 1.009-.04 2.128-.117 3.049-.128l3.24.073 3.034.286c1.016.143 2.044.323 3.064.492 8.142 1.555 15.751 5.441 21.684 10.85 2.558 2.315 4.785 4.876 6.737 7.554 8.824 10.996 14.25 25.845 14.25 42.202 0 20.188-8.248 38.097-20.98 49.273l-.374.462s-6.127-3.06-12.621-6.263a331.09 331.09 0 0 0-5.981-2.536l-3.185-1.302-1.324-.514-.764-.275-1.511-.543-2.627-.961-2.704-1.031-5.288-2.08c-3.463-1.41-6.791-2.888-9.94-4.451-6.273-3.148-11.91-6.48-16.356-10.01-2.279-1.71-4.194-3.526-5.911-5.29-1.677-1.806-3.086-3.64-4.315-5.633zm100.435 157.013c-1.2 6.153-3.589 12.577-7.485 18.782a56.413 56.413 0 0 1-14.134 15.142c-10.145 7.892-22.43 12.516-35.667 12.516-34.827 0-63.061-31.955-63.061-71.372 0-21.949 8.758-41.571 22.528-54.662 1.904-2.037 3.893-4.014 6.028-5.853a207.48 207.48 0 0 0 5.434 2.818c2.198 1.086 4.378 2.154 6.575 3.137l3.28 1.453 3.387 1.45 2.437 1.016 2.792 1.2 5.51 2.436c3.67 1.585 7.244 3.25 10.795 4.873 7.063 3.298 13.891 6.703 20.136 10.493 6.263 3.746 11.874 7.948 16.544 12.222 4.638 4.311 8.19 8.733 10.391 12.908 1.123 2.102 2.499 4.546 3.512 7.698 1.012 3.148 1.412 5.676 1.412 5.676.855 5.91.785 11.892-.414 18.067zM143.161 304.955c-3.76-5.367-6.098-13.773-6.098-20.459 0-9.436 0-208.181-.004-251.627 0-4.414-1.02-6.256-2.014-5.625-.514-.323-1.09.055-1.574 1.163-11.176 25.603-40.07 49.445-57.726 56.266-2.48.961-2.52 3.574 1.016 3.574.1 0 .21-.004.312-.008.015-.029.04-.055.055-.084a5.21 5.21 0 0 0 1.013.092c3.496 0 10.387-1.439 10.387-1.439v197.688c0 7.14-4.021 16.255-9.408 21.52-2.678 2.616-8.354 8.12-3.856 8.12h71.441c5.167 0-1.287-5.96-3.544-9.18"/>
    </g>
</svg>
