<?xml version="1.0" encoding="UTF-8"?>
<svg width="256px" height="256px" viewBox="0 0 256 256" version="1.1" xmlns="http://www.w3.org/2000/svg" xmlns:xlink="http://www.w3.org/1999/xlink">
    <!-- Generator: Sketch 46.2 (44496) - http://www.bohemiancoding.com/sketch -->
    <title>gluten-free</title>
    <desc>Created with Sketch.</desc>
    <defs></defs>
    <g id="Page-1" stroke="none" stroke-width="1" fill="none" fill-rule="evenodd">
        <g id="gluten-free" fill-rule="nonzero" fill="#E1DFC7">
            <g id="Gluten-Free" transform="translate(10.000000, 10.000000)">
                <path d="M221.110314,22.9098664 L22.909345,221.117351 C21.4515289,222.568191 19.5087313,223.357143 17.4967794,223.357143 C15.4793306,223.357143 13.5339647,222.567148 12.0786222,221.111773 C9.08513676,218.11822 9.08513676,213.270521 12.0786343,210.273342 L210.27118,12.0784098 C213.256367,9.08590985 218.113445,9.08590985 221.107497,12.0727978 C224.107492,15.065622 224.107492,19.9270963 221.110314,22.9098664 Z" id="Shape"></path>
                <path d="M236.922118,225.537632 C240.063697,228.686831 240.063697,233.77868 236.913732,236.924865 C235.38208,238.449168 233.341599,239.277778 231.228234,239.277778 C229.103132,239.277778 227.057542,238.447093 225.537145,236.919286 L179.310546,190.692223 C173.876737,185.270334 161.774007,187.807725 152.328901,192.23454 C151.220291,192.779518 150.015177,193.059418 148.802113,193.059418 C145.741281,193.059418 142.921007,191.324827 141.558237,188.524993 C139.610391,184.522737 141.274984,179.701837 145.250402,177.783984 C149.2262,175.802714 154.992361,173.723857 161.285147,172.587006 L160.380441,171.66741 C160.176355,171.528355 160.176355,171.528355 159.843722,171.22971 C154.418653,165.799269 141.304808,168.549486 132.8405,172.781405 C131.739129,173.315296 130.538296,173.584834 129.325471,173.584834 C126.275491,173.584834 123.453162,171.855105 122.090603,169.059416 C120.144764,165.061285 121.808299,160.247901 125.806304,158.30004 C129.964577,156.269236 135.574911,154.241812 141.744573,153.125877 L137.88748,149.268745 C134.744506,146.121944 134.744506,141.027845 137.888879,137.883441 C141.028532,134.743756 146.123806,134.743756 149.271058,137.883441 L153.126018,141.738439 C154.232666,135.617859 156.240039,130.068015 158.303285,125.800211 C160.254878,121.805859 165.068565,120.144938 169.065671,122.092266 C173.056336,124.03626 174.72636,128.853641 172.785555,132.841406 C168.119264,142.48883 166.374477,154.965736 171.215777,159.828379 L172.595582,161.208198 C173.709351,155.056022 175.729528,149.467218 177.766509,145.281604 C179.705866,141.281165 184.516025,139.616319 188.526655,141.55905 C192.52581,143.503578 194.190832,148.314209 192.248699,152.304702 C187.588491,161.939798 185.842676,174.40562 190.675307,179.288104 L236.922118,225.537632 Z" id="Shape"></path>
                <path d="M72.4566537,83.7264295 C67.1524421,78.4261799 54.298634,81.1190624 46.0173844,85.2582191 C44.9243026,85.7845177 43.7366897,86.055575 42.5487867,86.055575 C39.5226382,86.055575 36.7278835,84.3392389 35.3923457,81.5809838 C33.4560217,77.626637 35.1043164,72.8564242 39.0572212,70.9386636 C43.1237825,68.9528676 48.5990442,66.9713768 54.6229393,65.870243 L50.9691054,62.2169314 C48.5607432,59.8283719 44.9789223,58.9270967 40.2543372,59.2557947 C37.0668811,59.4775519 33.5853514,60.2437679 30.0515266,61.3856443 C27.4915076,62.2128571 25.7076923,62.9404312 24.3524498,63.5613174 C23.2583766,64.0990062 22.0634935,64.3702384 20.8644984,64.3702384 C17.8390204,64.3702384 15.0405927,62.6550398 13.7036426,59.8865961 C11.7828758,55.9333148 13.4281324,51.1730559 17.3933976,49.2455462 C21.5901447,47.2243777 26.9833096,45.2721506 32.9417397,44.1867435 L12.1690104,23.4211536 C9.05500825,20.3154727 9.05500825,15.2710679 12.1648072,12.1658275 C15.2728908,9.05479096 20.3083775,9.05827402 23.423754,12.1653316 L44.1711269,32.9235347 C45.2669834,26.9458706 47.2317807,21.5246517 49.2337334,17.3984227 C51.1639947,13.448788 55.9190513,11.8054161 59.8798208,13.7308722 C63.8326413,15.6597733 65.4797457,20.4252551 63.5494732,24.3519226 C59.0044811,33.7728289 57.2922051,45.940258 61.9469605,50.6963008 L65.8632529,54.612582 C66.973425,48.5707515 68.9650496,43.070426 70.9235841,39.0882772 C72.846783,35.1302108 77.6112846,33.4850961 81.5573081,35.4106901 C85.5092189,37.3278698 87.1564797,42.0882395 85.2422084,46.0358658 C80.7090736,55.4255597 78.9881791,67.5786226 83.5983884,72.3399471 L87.5449312,76.2874755 C88.6389457,70.321573 90.5980934,64.9139923 92.6067303,60.7602574 C94.5370228,56.8105587 99.2921164,55.1694936 103.248286,57.0927096 C107.200395,59.0137444 108.850872,63.7766886 106.930902,67.7168148 C102.389049,77.1243095 100.672441,89.2852797 105.314231,94.0435723 L109.587339,98.3200076 C112.688051,101.43118 112.688051,106.464733 109.588747,109.570739 C108.079359,111.087064 106.051467,111.912698 103.950398,111.912698 C101.858809,111.912698 99.8363261,111.085035 98.3315425,109.576982 L94.5887209,105.790754 C94.454098,105.691852 94.454098,105.691852 94.1381639,105.408989 C88.8364124,100.108602 76.6318972,102.666291 67.7154321,106.933604 C66.6190363,107.46883 65.4314559,107.736492 64.2308647,107.736492 C61.2091999,107.736492 58.4210456,106.027116 57.0689409,103.257279 C55.1508448,99.3019891 56.793209,94.5398942 60.7547692,92.6142864 C64.9468836,90.5943447 70.3463555,88.6402278 76.30908,87.5535407 L72.7370569,83.9791168 C72.6828282,83.9341616 72.6170998,83.8737927 72.4566537,83.7264295 Z" id="Shape"></path>
            </g>
        </g>
    </g>
</svg>