<?xml version="1.0" encoding="UTF-8"?>
<svg width="256px" height="256px" viewBox="0 0 256 256" version="1.1" xmlns="http://www.w3.org/2000/svg" xmlns:xlink="http://www.w3.org/1999/xlink">
    <!-- Generator: Sketch 46.2 (44496) - http://www.bohemiancoding.com/sketch -->
    <title>map-marker</title>
    <desc>Created with Sketch.</desc>
    <defs></defs>
    <g id="Page-1" stroke="none" stroke-width="1" fill="none" fill-rule="evenodd">
        <g id="map-marker" fill-rule="nonzero" fill="#000000">
            <path d="M144.54432,226.984015 C141.311411,231.573703 138.308589,235.751395 135.612241,239.437007 C133.990524,241.653716 132.828463,243.217589 132.202513,244.048427 C130.242083,246.650524 126.346152,246.650524 124.385722,244.048427 C123.759772,243.217589 122.597711,241.653716 120.975994,239.437007 C118.279646,235.751395 115.276825,231.573703 112.043915,226.984015 C102.807343,213.871078 93.5704561,200.075167 84.942822,186.232902 C79.388437,177.321394 74.2651629,168.670057 69.6621045,160.370517 C53.8923134,131.936804 45,109.208992 45,93.5833333 C45,47.4215367 82.2920504,10 128.294118,10 C174.296185,10 211.588235,47.4215367 211.588235,93.5833333 C211.588235,109.208992 202.695922,131.936804 186.926131,160.370517 C182.323072,168.670057 177.199798,177.321394 171.645413,186.232902 C163.017779,200.075167 153.780893,213.871078 144.54432,226.984015 Z M128.294118,118.166667 C147.236151,118.166667 162.591696,102.757804 162.591696,83.75 C162.591696,64.7421962 147.236151,49.3333333 128.294118,49.3333333 C109.352085,49.3333333 93.9965398,64.7421962 93.9965398,83.75 C93.9965398,102.757804 109.352085,118.166667 128.294118,118.166667 Z" id="Shape"></path>
        </g>
    </g>
</svg>