<?xml version="1.0" encoding="UTF-8"?>
<svg width="256px" height="256px" viewBox="0 0 256 256" version="1.1" xmlns="http://www.w3.org/2000/svg" xmlns:xlink="http://www.w3.org/1999/xlink">
    <!-- Generator: Sketch 46.2 (44496) - http://www.bohemiancoding.com/sketch -->
    <title>veggie</title>
    <desc>Created with Sketch.</desc>
    <defs></defs>
    <g id="Page-1" stroke="none" stroke-width="1" fill="none" fill-rule="evenodd">
        <g id="veggie" fill-rule="nonzero" fill="#B9B732">
            <path d="M69.3429837,129.753758 C69.3429837,143.650379 74.8447714,156.907923 84.8412575,167.095058 C87.1660343,169.466148 87.0098364,173.168115 84.4923568,175.345798 C81.988761,177.521533 78.1018367,177.376505 75.7861716,175.02017 C63.6723073,162.677507 57,146.600202 57,129.756109 C57,114.680119 68.2008192,90.2446186 90.2750457,57.0882451 C97.3345163,46.482832 104.941024,35.8465742 112.581029,25.6890179 C115.264726,22.1209834 117.764707,18.8630805 120.01571,15.9804052 C121.383854,14.2283357 122.476533,12.850417 122.920305,12.3003247 C124.083655,10.850918 125.904245,10 127.831246,10 C129.757278,10 131.575563,10.8501787 132.741552,12.2995343 C133.199634,12.8673673 134.2796,14.2285253 135.64793,15.9799193 C137.899972,18.8624197 140.400862,22.1198878 143.085473,25.6874748 C150.728296,35.8440455 158.336875,46.4791448 165.397424,57.0835019 C187.485782,90.2507576 198.690002,114.680506 198.690002,129.756109 C198.690002,164.397648 170.357932,193.237466 133.930213,196.179024 L133.930213,240.168412 C133.930213,243.39143 131.163459,245.994001 127.763723,245.994001 C124.357296,245.994001 121.58723,243.392218 121.58723,240.168412 L121.58723,160.695051 L88.9304834,129.034242 C86.5433938,126.72115 86.6035377,123.014252 89.0619473,120.773322 C91.5081325,118.540866 95.3974576,118.597468 97.7758885,120.897057 L121.58723,143.987912 L121.58723,89.6140913 C121.58723,86.3898952 124.357722,83.786151 127.763723,83.786151 C131.164696,83.786151 133.930213,86.3898999 133.930213,89.6140913 L133.930213,143.667609 L157.950673,121.749284 C160.392027,119.52146 164.289135,119.578164 166.659162,121.877316 C169.046646,124.185727 168.986473,127.892875 166.527987,130.133874 L133.930213,159.876945 L133.930213,184.482896 C163.540348,181.581455 186.339516,157.968684 186.339516,129.753758 C186.339516,110.186049 159.882452,66.8860768 127.836313,25.5805805 C95.7889111,66.9041533 69.3429837,110.194244 69.3429837,129.753758 Z" id="Shape"></path>
        </g>
    </g>
</svg>