<?xml version="1.0" encoding="UTF-8"?>
<svg width="256px" height="256px" viewBox="0 0 256 256" version="1.1" xmlns="http://www.w3.org/2000/svg" xmlns:xlink="http://www.w3.org/1999/xlink">
    <!-- Generator: Sketch 46.2 (44496) - http://www.bohemiancoding.com/sketch -->
    <title>veggie</title>
    <desc>Created with Sketch.</desc>
    <defs></defs>
    <g id="Page-1" stroke="none" stroke-width="1" fill="none" fill-rule="evenodd">
        <g id="veggie" fill-rule="nonzero" fill="#000000">
            <path d="M165.204129,57.06548 C149.005184,32.77636 132.567427,12.36 132.401516,12.15468 C131.308012,10.79768 129.598626,10 127.786174,10 C125.973722,10 124.261823,10.79768 123.170832,12.15468 C123.004921,12.36 106.574706,32.77872 90.3782741,57.0702 C68.2316711,90.28012 57,114.74388 57,129.76528 C57,146.55668 63.6615775,162.58816 75.7655382,174.90028 C77.9399776,177.10924 81.6000746,177.24612 83.952994,175.20472 C86.3059135,173.17276 86.4492002,169.73188 84.2797884,167.52292 C74.1567044,157.22388 68.5836035,143.81672 68.5836035,129.76292 C68.5836035,105.63428 107.771276,50.28756 127.791202,24.55412 C147.813641,50.28048 187.008855,105.62484 187.008855,129.76292 C187.008855,158.62808 163.489716,182.41924 133.505076,185.1356 L133.505076,159.81044 L166.405727,129.8408 C168.700829,127.7522 168.758647,124.3066 166.528903,122.15428 C164.301674,119.99724 160.631522,119.94532 158.338934,122.03392 L133.505076,144.65688 L133.505076,89.48244 C133.505076,86.48052 130.915859,84.045 127.718301,84.045 C124.515717,84.045 121.921472,86.48052 121.921472,89.48244 L121.921472,145.01796 L97.2887181,121.17016 C95.0564611,119.01548 91.3938504,118.95884 89.0937208,121.05452 C86.7986188,123.14312 86.7408014,126.58872 88.9705445,128.74576 L121.921472,160.6388 L121.921472,240.56492 C121.921472,243.56684 124.515717,246 127.718301,246 C130.913345,246 133.505076,243.56684 133.505076,240.56492 L133.505076,196.04116 C169.882316,193.29176 198.6,164.6272 198.6,129.76528 C198.6,114.74152 187.360788,90.28012 165.204129,57.06548 Z" id="Shape"></path>
        </g>
    </g>
</svg>